<mxfile host="Electron" modified="2024-09-10T11:18:35.912Z" agent="Mozilla/5.0 (X11; Linux x86_64) AppleWebKit/537.36 (KHTML, like Gecko) draw.io/24.6.4 Chrome/124.0.6367.207 Electron/30.0.6 Safari/537.36" etag="bms8UdIO8WeV5t29iTcM" version="24.6.4" type="device">
  <diagram name="Page-1" id="30eDFWtLZ-vzRjGJo76e">
    <mxGraphModel dx="1964" dy="1027" grid="1" gridSize="10" guides="1" tooltips="1" connect="1" arrows="1" fold="1" page="1" pageScale="1" pageWidth="850" pageHeight="1100" math="0" shadow="0">
      <root>
        <mxCell id="0" />
        <mxCell id="1" parent="0" />
        <mxCell id="yYybROheOo7XdbPep2oi-2" value="" style="html=1;shadow=0;dashed=0;align=center;verticalAlign=middle;shape=mxgraph.arrows2.jumpInArrow;dy=15;dx=38;arrowHead=55;rotation=50;" vertex="1" parent="1">
          <mxGeometry x="440" y="30" width="100" height="100" as="geometry" />
        </mxCell>
        <mxCell id="yYybROheOo7XdbPep2oi-13" value="JIPipe-4.0.0-Prepackaged-Win64.zip" style="shape=image;aspect=fixed;image=data:image/svg+xml,PHN2ZyB3aWR0aD0iNjQiIGhlaWdodD0iNjQiIHZlcnNpb249IjEuMSIgdmlld0JveD0iMCAwIDY0IDY0IiB4bWxucz0iaHR0cDovL3d3dy53My5vcmcvMjAwMC9zdmciPgogPGRlZnM+CiAgPGZpbHRlciBpZD0iYSIgeD0iLS4wMzkwMDEiIHk9Ii0uMDMzNDI4IiB3aWR0aD0iMS4wNzgiIGhlaWdodD0iMS4wNjY5IiBjb2xvci1pbnRlcnBvbGF0aW9uLWZpbHRlcnM9InNSR0IiPgogICA8ZmVHYXVzc2lhbkJsdXIgc3RkRGV2aWF0aW9uPSIwLjIwNjM3NTI1Ii8+CiAgPC9maWx0ZXI+CiA8L2RlZnM+CiA8cGF0aCB0cmFuc2Zvcm09InNjYWxlKDMuNzc5NikiIGQ9Im0zLjQzOTUgMS4zNTQzYy0wLjczMjg5IDAtMS4zMjI5IDAuNTkwMDEtMS4zMjI5IDEuMzIyOXYxMi4xNzFjMCAwLjczMjg5IDAuNTkwMDEgMS4zMjI5IDEuMzIyOSAxLjMyMjloMTAuMDU0YzAuNzMyODkgMCAxLjMyMjktMC41OTAwMSAxLjMyMjktMS4zMjI5di0xMC4zMTlsLTMuMTc1LTMuMTc1eiIgZmlsbC1ydWxlPSJldmVub2RkIiBmaWx0ZXI9InVybCgjYSkiIG9wYWNpdHk9Ii4xNSIgc3Ryb2tlLXdpZHRoPSIuMjY0NTgiIHN0eWxlPSJwYWludC1vcmRlcjpzdHJva2UgZmlsbCBtYXJrZXJzIi8+CiA8ZyB0cmFuc2Zvcm09InNjYWxlKDMuNzc5NikiIGZpbGwtcnVsZT0iZXZlbm9kZCI+CiAgPHBhdGggdHJhbnNmb3JtPSJzY2FsZSguMjY0NTgpIiBkPSJtMTMgNGMtMi43NyAwLTUgMi4yMy01IDV2NDZjMCAyLjc3IDIuMjMgNSA1IDVoMzhjMi43NyAwIDUtMi4yMyA1LTV2LTM5bC0xMi0xMnoiIGZpbGw9IiNmZWMyMWEiIHN0eWxlPSJwYWludC1vcmRlcjpzdHJva2UgZmlsbCBtYXJrZXJzIi8+CiAgPHBhdGggZD0ibTE0LjgxNiA0LjIzMzItMy4xNzQ5LTMuMTc0OXYxLjg1MmMwIDAuNzMyODggMC41OTAwMSAxLjMyMjkgMS4zMjI5IDEuMzIyOXoiIGZpbGw9IiNmZmYiIG9wYWNpdHk9Ii4zNSIgc3R5bGU9InBhaW50LW9yZGVyOnN0cm9rZSBmaWxsIG1hcmtlcnMiLz4KIDwvZz4KIDxnIHRyYW5zZm9ybT0ibWF0cml4KDMuNzc5NiAwIDAgMy43Nzk2IC0xMDEuMDQgNC40MjQpIiBmaWxsPSIjZmZmIiBvcGFjaXR5PSIuNzUiPgogIDxwYXRoIGQ9Im0zNC42NzEgNy4wMzE1djEuNzE5OGMwIDAuMDczMjkgMC4wNTkgMC4xMzIyOSAwLjEzMjI5IDAuMTMyMjloMC43OTM3NGMwLjA3MzI5IDAgMC4xMzIyOS0wLjA1OSAwLjEzMjI5LTAuMTMyMjl2LTEuNzE5OHptMC4yNjQ1OCAxLjA1ODNoMC41MjkxNnYwLjUyOTE2aC0wLjUyOTE2eiIgY29sb3I9IiMwMDAwMDAiLz4KICA8cGF0aCBkPSJtMzUuMi0wLjExMjE1djAuNTI5MTZoMC41MjkxNnYtMC41MjkxNnptMCAwLjUyOTE2aC0wLjUyOTE2djAuNTI5MTZoMC41MjkxNnptMCAwLjUyOTE2djAuNTI5MTZoMC41MjkxNnYtMC41MjkxNnptMCAwLjUyOTE2aC0wLjUyOTE2djAuNTI5MTZoMC41MjkxNnptMCAwLjUyOTE2djAuNTI5MTZoMC41MjkxNnYtMC41MjkxNnptMCAwLjUyOTE2aC0wLjUyOTE2djAuNTI5MTZoMC41MjkxNnptMCAwLjUyOTE2djAuNTI5MTZoMC41MjkxNnYtMC41MjkxNnptMCAwLjUyOTE2aC0wLjUyOTE2djAuNTI5MTZoMC41MjkxNnptMCAwLjUyOTE2djAuNTI5MTZoMC41MjkxNnYtMC41MjkxNnptMCAwLjUyOTE2aC0wLjUyOTE2djAuNTI5MTZoMC41MjkxNnptMCAwLjUyOTE2djAuNTI5MTZoMC41MjkxNnYtMC41MjkxNnptMCAwLjUyOTE2aC0wLjUyOTE2djAuNTI5MTZoMC41MjkxNnptMCAwLjUyOTE2djAuNTI5MTZoMC41MjkxNnYtMC41MjkxNnoiIGNvbG9yPSIjMDAwMDAwIi8+CiA8L2c+CiA8cGF0aCBkPSJtNDMuOTk4IDExdjAuNTgzOTljMCAzLjAwMDkgMi4yMyA1LjQxNjIgNSA1LjQxNjJoNi45OTk4bDUuMzdlLTQgLTEuMDAwMi03LjAwMDYgMS44OWUtNGMtMi43NyA3LjVlLTUgLTUtMi4yMy01LTV6IiBmaWxsLXJ1bGU9ImV2ZW5vZGQiIG9wYWNpdHk9Ii4xIiBzdHJva2Utd2lkdGg9IjMuOTMzOCIgc3R5bGU9InBhaW50LW9yZGVyOnN0cm9rZSBmaWxsIG1hcmtlcnMiLz4KPC9zdmc+Cg==;labelPosition=center;verticalLabelPosition=bottom;align=center;verticalAlign=top;fontSize=15;" vertex="1" parent="1">
          <mxGeometry x="560" y="110" width="128" height="128" as="geometry" />
        </mxCell>
        <mxCell id="yYybROheOo7XdbPep2oi-10" value="" style="shape=image;aspect=fixed;image=data:image/svg+xml,PHN2ZyB4bWxucz0iaHR0cDovL3d3dy53My5vcmcvMjAwMC9zdmciIHZpZXdCb3g9IjAgMCAzMjAgNTEyIj48IS0tISBGb250IEF3ZXNvbWUgRnJlZSA2LjUuMSBieSBAZm9udGF3ZXNvbWUgLSBodHRwczovL2ZvbnRhd2Vzb21lLmNvbSBMaWNlbnNlIC0gaHR0cHM6Ly9mb250YXdlc29tZS5jb20vbGljZW5zZS9mcmVlIChJY29uczogQ0MgQlkgNC4wLCBGb250czogU0lMIE9GTCAxLjEsIENvZGU6IE1JVCBMaWNlbnNlKSBDb3B5cmlnaHQgMjAyMyBGb250aWNvbnMsIEluYy4gLS0+PHBhdGggZD0iTTAgNTUuMlY0MjZjMCAxMi4yIDkuOSAyMiAyMiAyMmM2LjMgMCAxMi40LTIuNyAxNi42LTcuNUwxMjEuMiAzNDZsNTguMSAxMTYuM2M3LjkgMTUuOCAyNy4xIDIyLjIgNDIuOSAxNC4zczIyLjItMjcuMSAxNC4zLTQyLjlMMTc5LjggMzIwSDI5Ny45YzEyLjIgMCAyMi4xLTkuOSAyMi4xLTIyLjFjMC02LjMtMi43LTEyLjMtNy40LTE2LjVMMzguNiAzNy45QzM0LjMgMzQuMSAyOC45IDMyIDIzLjIgMzJDMTAuNCAzMiAwIDQyLjQgMCA1NS4yeiIvPjwvc3ZnPg==;imageBackground=none;" vertex="1" parent="1">
          <mxGeometry x="650" y="180" width="94" height="150" as="geometry" />
        </mxCell>
        <mxCell id="yYybROheOo7XdbPep2oi-20" value="" style="shape=image;verticalLabelPosition=bottom;labelBackgroundColor=default;verticalAlign=top;aspect=fixed;imageAspect=0;image=data:image/png,iVBORw0KGgoAAAANSUhEUgAAAT0AAAA5CAYAAABEffw/AAAACXBIWXMAAA7EAAAOxAGVKw4bAAAJJ0lEQVR4Xu3de0yT9x7H8XdbWootINQiCl5A1DUwpTgvHGeOZyfLSeY/m1tismWXDPfHXLJsTINmM7g5yRaIm7tkcRnZLSYumds/yzLjJDmJ7nhw1nMERPEylCkVLZRLgRZozx+E2j7aUjzcfPp9/UW/3+fh+ZWkn/yey69oAoFAACGEiBNaZUEIIdRMQk8IEVck9IQQcUVCTwgRVyT0hBBxRUJPCBFXJPSEEHFFQk8IEVck9IQQcUVCTwgRVxKUhdFUnaqisb0RX8AHsoBNCDGZNGDQGLCl29i6YquyGxNNrGtvG1wN7HXsxev3okGjbAshxKQJECBRm0hpUSn5lnxlO6qYQ6/kSAk+v09ZFkKIKWPQGqh+tFpZjiqma3pVp6rw+r3KshBCTCmv30vVqSplOaqYQq+xvVFOaYUQ044GDY3tjcpyVDGFni8gp7VCiOlprPkUU+jJXVohxLQ1xnyKLfSEEEIlJPSEEHFFQk8IEVck9IQQcWVKQ698dTnlq8uVZSGEmDBjXns7nvJm5ilL01qqIZVOX6eyrBpqf39CwBTP9O4nOSk5vLHiDXQanbKlCsmGZMoeKiPdmK5sCaEq933oLUpdxOaCzcryuEpKSGLLsi18duYzhgJDwfrsGbP5ZP0nIVtOP3arnffWvqcs36Hb182B8wd4tfBVNBpZfSPU674PPbvVTqG1cEKXyW3M28jx1uO0eloByDZnMytpFh3eDtw+NwC5qbkkG5JDd5sWLrgv8Hn958ryXTW4GmjrbWN91nplSwjVuO9Dr9BayM3em+Sm5ipb48KoM1I8p5ifm38O1pamLaVsRRlblm3BqDOyc/VOXsx/kSxTVsie00PPQA+XOy8ryxEduniIDTkblGUhVGNSb2SUry5Hr9VTearyjgvmqYZUtq3YxoB/gLf//XZYL5J0YzoBAtS01GDPsHOp8xIAeq2elwpeom+wj5mJMzHpTdS01PBb628AbC7YjKvPRXZyNma9meauZg6eP0jgLutZijKKaHA14Bu6vb7vaMtRjrYcZdOSTcwzz+Onyz9x+ubpkL3Crc5czVN5T2HQGXB73Xx59kuau5rHbZyPzHuEx3MfD7426U3U3qhlf91+8mbmsWnxJvac3DPq8QBu9N6gf7CfnJQc/uj6I1gXQi0mNfT0Oj0LkhewY+UOKk5WBOsphhR2rNxBljmLK11XQvaIrtBaiKPNwembpylbUMb3F74P9tZkrmHrsa209baRoE3gnTXv0ORu4lbfLbLN2TR1NPHjpR+B4XApnlMc9uEfsXjmYhpcDcoy6+auw5ZuY3ftbnat2UW7o50r3XeO3aw38/TSpyk/UY7b62Z+8nxeWf4KZcfKgPEZZ01LDTUtNQAYE4zsLt7NoYuHwrYZEe14I+pd9SxJWyKhJ1RpUk9vK09V0uppJcucxY6VO4L1kcC77rlOpaMyZI/o7FY7jjYHPQM99A/1YzFagj3PoIe23jYABv2DXPNcY37y/GA/9JTvcudlclJzgq9DpRnTcPW7lGW8fi9fnf0Kt9fNwfMHle0gn9/Hvv/sw+0dvvZ3tfsqJr0JY4IRGL9xjti4aCPHrh0LC7FQox0PoL2/nbTEtLCaEGoxqTO9Tm8ne07u4c2Vb5Jtzg7Ws83ZXPdcp+JkBZ3e2J4TM+gMzJ4xOzi7crQ5sGfY+fXqr4otb4t2syNSz6Q34RnwKMvUOmuDP59wngjphPMN+UjQJFBaVEqCZvjPbUowoUXLELfvBIeKNBaI3ssyZ7Fs1jLe+tdbylZUyt/ZM9BzRxAKoRaTGnoQHnxzTHMAxhx4APnp+ViTrOz/+34AtGhpcjdFDb170eXrIsWQoizHzKQ3UVJQwru179Lt6wbgk79NzGMuL9he4MC5Awz6B5WtMUkxpNDl61KWhVCFCQ+9By0PUlJQEnbqWeus5f3f3+f1otcB2OvYyzNLn6F4TnFwG1e/i+r6aupcdcFaKHuGnY//+zGONkewVrmukkRdIv6AP2TLYRo0YTcAQp9FU/ZCtfe3MytplrIcs3nmeTg9zmDgwXBAR6IcS6zjXDt3Ld0D3RH/XpHc7Xdak6y09g4/niOE2kT+9I0TZeABrMpcxXO259jr2MsHjg943vZ8WOA5e51YjBZKCkpC9gq3fNZymjqawmqX3JcosBQAwzcQlqQtAYZXGyxKXURLd0tw2yJrEQA6jY7l1uU0dzUHe6HOus5SaC1UlqOyGC2kGYevibX2trIgZQGpianA8OMuoc/z3es4zXpzcKaclJDEE4ue4MC5AyO7RTTa8QCWWZdR76oPqwmhFhM+01MG3oiijCKKMoY/0KGcHifbjm2jcl0lmTMylW0AFqYspHewl56BnrD6uY5z2DPsnLl1ht7BXh6e+zCb8zej0+r44eIP3Oy7Gdw2zZhGxV8qMOlNnLxx8o47oiPqXHWU5JeQbEgOm61F8+TiJ/EOevm68Ws6vZ181/QdO1ftxB/wc67jHEeuHglue6/jtGfY2bBwA9uPb+exhY9hMVrCvrzhfMd5Pj3zafD1iNGOl5uai3fQi9PjDNlLCPWI6V9APnv4WWUpZh/+9cOIwReJ0+Mk05SJq9/Fa/98TdkelV6r56P1H/FyzcvKFgC71uzii/ov+LPnT2XrrjbkbMBitPBN4zfK1v9lvMc5mtGOB7D9oe0cvnI46nOHQkw33/7jW2Upogk/va1uqL7rIx/RjARedf3Y/p/lRPml+RfyZubxQNoDypaqrMtaR99gnwSeULUJP72tu1V3T7O16WQoMMS+0/vYsnwLFbUVYV86oBZmvZn12eup/D325ySFuB9N+Omtmug0OlUG3gi1vz+hXtPq9FZN1B4Ian9/QoCEnhAizkjoCSHiSmyhF3m5pxBCTK0x5lNMoWfQGJQlIYSYFsaaTzGFni3ddsf6TCGEmGoBAtjSbcpyVDE9sgJQcqQEn//2twcLIcRUM2gNVD86tkUMMc30AEqLSjFoDTLjE0JMuQABDFoDpUWlytaoYp7pjag6VUVjeyO+gA/JPyHEpNIMX8OzpdvYumKrshuTMYeeEELcz2I+vRVCCDWQ0BNCxBUJPSFEXJHQE0LEFQk9IURckdATQsQVCT0hRFz5Hw8ZcOyU8rxeAAAAAElFTkSuQmCC;" vertex="1" parent="1">
          <mxGeometry x="91" y="40" width="317" height="57" as="geometry" />
        </mxCell>
        <mxCell id="yYybROheOo7XdbPep2oi-21" value="" style="shape=image;aspect=fixed;image=data:image/svg+xml,PD94bWwgdmVyc2lvbj0iMS4wIiBlbmNvZGluZz0iVVRGLTgiIHN0YW5kYWxvbmU9Im5vIj8+Cgo8IS0tIENyZWF0ZWQgd2l0aCBJbmtzY2FwZSAoaHR0cDovL3d3dy5pbmtzY2FwZS5vcmcvKSAtLT4KPHN2ZyB3aWR0aD0iNjQiIHZlcnNpb249IjEuMSIgeG1sbnM9Imh0dHA6Ly93d3cudzMub3JnLzIwMDAvc3ZnIiBoZWlnaHQ9IjY0IiB4bWxuczp4bGluaz0iaHR0cDovL3d3dy53My5vcmcvMTk5OS94bGluayIgeG1sbnM6aW5rc2NhcGU9Imh0dHA6Ly93d3cuaW5rc2NhcGUub3JnL25hbWVzcGFjZXMvaW5rc2NhcGUiPgogPGRlZnMgaWQ9ImRlZnM1NDU1Ij4KICA8bGluZWFyR3JhZGllbnQgaW5rc2NhcGU6Y29sbGVjdD0iYWx3YXlzIiBpZD0ibGluZWFyR3JhZGllbnQ0MTU5Ij4KICAgPHN0b3Agc3R5bGU9InN0b3AtY29sb3I6IzJhMmMyZiIgaWQ9InN0b3A0MTYxIi8+CiAgIDxzdG9wIG9mZnNldD0iMSIgc3R5bGU9InN0b3AtY29sb3I6IzQyNDY0OSIgaWQ9InN0b3A0MTYzIi8+CiAgPC9saW5lYXJHcmFkaWVudD4KICA8bGluZWFyR3JhZGllbnQgaW5rc2NhcGU6Y29sbGVjdD0iYWx3YXlzIiBpZD0ibGluZWFyR3JhZGllbnQ0MjUwIiB4bGluazpocmVmPSIjbGluZWFyR3JhZGllbnQ0MTU5IiB5MT0iNTM2Ljc5Nzk3IiB5Mj0iNTAzLjc5OCIgZ3JhZGllbnRVbml0cz0idXNlclNwYWNlT25Vc2UiIHgyPSIwIiBncmFkaWVudFRyYW5zZm9ybT0ibWF0cml4KDEuMDgzMzMzMSAwIDAgMS4wOTA5MDkyIC0zNC4wNDc1MyAtNDkuNzk5OTA4KSIvPgogIDxsaW5lYXJHcmFkaWVudCBpbmtzY2FwZTpjb2xsZWN0PSJhbHdheXMiIGlkPSJsaW5lYXJHcmFkaWVudDQyNzIiIHhsaW5rOmhyZWY9IiNsaW5lYXJHcmFkaWVudDQzMDMiIHkxPSI1NDcuNzk3OTciIHkyPSI1MzYuNzk3OTciIGdyYWRpZW50VW5pdHM9InVzZXJTcGFjZU9uVXNlIiB4Mj0iMCIgZ3JhZGllbnRUcmFuc2Zvcm09Im1hdHJpeCgxLjE2NjY2NzQgMCAwIDEuMDkwOTA5MiAtNjguMDk1NTEgLTQ5Ljc5OTkwNikiLz4KICA8bGluZWFyR3JhZGllbnQgaW5rc2NhcGU6Y29sbGVjdD0iYWx3YXlzIiBpZD0ibGluZWFyR3JhZGllbnQ0MzAzIj4KICAgPHN0b3Agc3R5bGU9InN0b3AtY29sb3I6I2M2Y2RkMSIgaWQ9InN0b3A0MzA1Ii8+CiAgIDxzdG9wIG9mZnNldD0iMSIgc3R5bGU9InN0b3AtY29sb3I6I2UwZTVlNyIgaWQ9InN0b3A0MzA3Ii8+CiAgPC9saW5lYXJHcmFkaWVudD4KICA8bGluZWFyR3JhZGllbnQgaW5rc2NhcGU6Y29sbGVjdD0iYWx3YXlzIiBpZD0ibGluZWFyR3JhZGllbnQ0NTkxIj4KICAgPHN0b3Agc3R5bGU9InN0b3AtY29sb3I6IzdlOGY5ZSIgaWQ9InN0b3A0NTkzIi8+CiAgIDxzdG9wIG9mZnNldD0iMSIgc3R5bGU9InN0b3AtY29sb3I6Izg0Y2VkNSIgaWQ9InN0b3A0NTk1Ii8+CiAgPC9saW5lYXJHcmFkaWVudD4KICA8bGluZWFyR3JhZGllbnQgaW5rc2NhcGU6Y29sbGVjdD0iYWx3YXlzIiBpZD0ibGluZWFyR3JhZGllbnQ0NTk3LTUiIHhsaW5rOmhyZWY9IiNsaW5lYXJHcmFkaWVudDQ1OTEiIHkxPSI1NDEuNzk3OTciIHkyPSI0ODkuNzk4IiBncmFkaWVudFVuaXRzPSJ1c2VyU3BhY2VPblVzZSIgeDI9IjAiIGdyYWRpZW50VHJhbnNmb3JtPSJtYXRyaXgoMS4wODcxMDc5IDAgMCAxLjEwMDAwMDIgLTQ0LjM3MDI2IC00Ny45Nzk5MTIpIi8+CiAgPGxpbmVhckdyYWRpZW50IGlua3NjYXBlOmNvbGxlY3Q9ImFsd2F5cyIgaWQ9ImxpbmVhckdyYWRpZW50NDY4MSIgeGxpbms6aHJlZj0iI2xpbmVhckdyYWRpZW50NDY3NSIgeTE9IjUzNS43OTc5NyIgeTI9IjUyMi43OTc5NyIgeDE9IjM5NC41NzE0NCIgZ3JhZGllbnRVbml0cz0idXNlclNwYWNlT25Vc2UiIHgyPSI0MDQuNTcxNDQiIGdyYWRpZW50VHJhbnNmb3JtPSJtYXRyaXgoMS4wOTk5OTk3IDAgMCAxLjE0Mjg1NjQgLTQ5LjQ1NzAyIC03MC42ODUwNSkiLz4KICA8bGluZWFyR3JhZGllbnQgaW5rc2NhcGU6Y29sbGVjdD0iYWx3YXlzIiBpZD0ibGluZWFyR3JhZGllbnQ0Njc1Ij4KICAgPHN0b3Agc3R5bGU9InN0b3AtY29sb3I6I2U0YTU2ZCIgaWQ9InN0b3A0Njc3Ii8+CiAgIDxzdG9wIG9mZnNldD0iMSIgc3R5bGU9InN0b3AtY29sb3I6I2E3YmQ3OCIgaWQ9InN0b3A0Njc5Ii8+CiAgPC9saW5lYXJHcmFkaWVudD4KICA8bGluZWFyR3JhZGllbnQgaW5rc2NhcGU6Y29sbGVjdD0iYWx3YXlzIiBpZD0ibGluZWFyR3JhZGllbnQ0Njg5IiB4bGluazpocmVmPSIjbGluZWFyR3JhZGllbnQ0NjgzIiB4MT0iNDA0LjU3MTQ0IiBncmFkaWVudFVuaXRzPSJ1c2VyU3BhY2VPblVzZSIgeDI9IjQyMS41NzE0NCIgZ3JhZGllbnRUcmFuc2Zvcm09Im1hdHJpeCgxLjA3OTUyNDQgMCAwIDEuMTQyODU2NyAtNDEuMTczMjkgLTcwLjY4NTE2KSIvPgogIDxsaW5lYXJHcmFkaWVudCBpbmtzY2FwZTpjb2xsZWN0PSJhbHdheXMiIGlkPSJsaW5lYXJHcmFkaWVudDQ2ODMiPgogICA8c3RvcCBzdHlsZT0ic3RvcC1jb2xvcjojYzNhMjc4IiBpZD0ic3RvcDQ2ODUiLz4KICAgPHN0b3Agb2Zmc2V0PSIxIiBzdHlsZT0ic3RvcC1jb2xvcjojNjY4OGFhIiBpZD0ic3RvcDQ2ODciLz4KICA8L2xpbmVhckdyYWRpZW50PgogIDxsaW5lYXJHcmFkaWVudCBpbmtzY2FwZTpjb2xsZWN0PSJhbHdheXMiIGlkPSJsaW5lYXJHcmFkaWVudDQ3MjgiIHhsaW5rOmhyZWY9IiNsaW5lYXJHcmFkaWVudDQ3MjIiIHkxPSI1MzYuNzk3OTciIHkyPSI1MjQuNzk3OTciIHgxPSI0MzAuNTcxNDQiIGdyYWRpZW50VW5pdHM9InVzZXJTcGFjZU9uVXNlIiB4Mj0iNDM3LjQ5OTYzIiBncmFkaWVudFRyYW5zZm9ybT0ibWF0cml4KDEuMTA3ODA4NSAwIDAgMS4xNDI4NTY0IC01My40NDg5NyAtNzAuNjg1MDYpIi8+CiAgPGxpbmVhckdyYWRpZW50IGlua3NjYXBlOmNvbGxlY3Q9ImFsd2F5cyIgaWQ9ImxpbmVhckdyYWRpZW50NDcyMiI+CiAgIDxzdG9wIHN0eWxlPSJzdG9wLWNvbG9yOiM2NTg4YWYiIGlkPSJzdG9wNDcyNCIvPgogICA8c3RvcCBvZmZzZXQ9IjEiIHN0eWxlPSJzdG9wLWNvbG9yOiM4YmE4Y2QiIGlkPSJzdG9wNDcyNiIvPgogIDwvbGluZWFyR3JhZGllbnQ+CiAgPGxpbmVhckdyYWRpZW50IGlua3NjYXBlOmNvbGxlY3Q9ImFsd2F5cyIgaWQ9ImxpbmVhckdyYWRpZW50NDg0MCIgeGxpbms6aHJlZj0iI2xpbmVhckdyYWRpZW50NDgzNCIgeDE9IjQyMS41NzE0NCIgZ3JhZGllbnRVbml0cz0idXNlclNwYWNlT25Vc2UiIHgyPSI0MzguNTcxNDQiIGdyYWRpZW50VHJhbnNmb3JtPSJtYXRyaXgoMS4wNDg5ODU3IDAgMCAxLjEwMDAwMDIgLTI3LjY1MDk2NyAtNDcuOTc5OTExKSIvPgogIDxsaW5lYXJHcmFkaWVudCBpbmtzY2FwZTpjb2xsZWN0PSJhbHdheXMiIGlkPSJsaW5lYXJHcmFkaWVudDQ4MzQiPgogICA8c3RvcCBzdHlsZT0ic3RvcC1jb2xvcjojODlhZDhiIiBpZD0ic3RvcDQ4MzYiLz4KICAgPHN0b3Agb2Zmc2V0PSIxIiBzdHlsZT0ic3RvcC1jb2xvcjojODJiM2M3IiBpZD0ic3RvcDQ4MzgiLz4KICA8L2xpbmVhckdyYWRpZW50PgogIDxsaW5lYXJHcmFkaWVudCBpbmtzY2FwZTpjb2xsZWN0PSJhbHdheXMiIGlkPSJsaW5lYXJHcmFkaWVudDQ3ODQiIHhsaW5rOmhyZWY9IiNsaW5lYXJHcmFkaWVudDQ3NzgiIHkxPSI1MjUuNzk3OTciIHkyPSI1MTMuNzk3OTciIHgxPSIzODcuNTcxNDQiIGdyYWRpZW50VW5pdHM9InVzZXJTcGFjZU9uVXNlIiB4Mj0iNDAxLjU3MTQ0IiBncmFkaWVudFRyYW5zZm9ybT0ibWF0cml4KDEuMDk5OTk5NyAwIDAgMS4yNzUxNDI2IC00OS40NTcwMiAtMTM3LjQxNzk3KSIvPgogIDxsaW5lYXJHcmFkaWVudCBpbmtzY2FwZTpjb2xsZWN0PSJhbHdheXMiIGlkPSJsaW5lYXJHcmFkaWVudDQ3NzgiPgogICA8c3RvcCBzdHlsZT0ic3RvcC1jb2xvcjojZTFiMTZmIiBpZD0ic3RvcDQ3ODAiLz4KICAgPHN0b3Agb2Zmc2V0PSIxIiBzdHlsZT0ic3RvcC1jb2xvcjojOTliZjgzIiBpZD0ic3RvcDQ3ODIiLz4KICA8L2xpbmVhckdyYWRpZW50PgogIDxsaW5lYXJHcmFkaWVudCBpbmtzY2FwZTpjb2xsZWN0PSJhbHdheXMiIGlkPSJsaW5lYXJHcmFkaWVudDQ3OTIiIHhsaW5rOmhyZWY9IiNsaW5lYXJHcmFkaWVudDQ3ODYiIHkxPSI1MTAuNzk4IiB5Mj0iNDk4Ljc5OCIgeDE9IjQwNC41NzE0NCIgZ3JhZGllbnRVbml0cz0idXNlclNwYWNlT25Vc2UiIHgyPSIzOTEuNTcxNDQiIGdyYWRpZW50VHJhbnNmb3JtPSJtYXRyaXgoMS4wOTk5OTk3IDAgMCAxLjEwMDAwMDIgLTQ5LjQ1NzAyIC00Ny45Nzk5MTIpIi8+CiAgPGxpbmVhckdyYWRpZW50IGlua3NjYXBlOmNvbGxlY3Q9ImFsd2F5cyIgaWQ9ImxpbmVhckdyYWRpZW50NDc4NiI+CiAgIDxzdG9wIHN0eWxlPSJzdG9wLWNvbG9yOiM5OWM0ODciIGlkPSJzdG9wNDc4OCIvPgogICA8c3RvcCBvZmZzZXQ9IjEiIHN0eWxlPSJzdG9wLWNvbG9yOiNiNGQ5OWUiIGlkPSJzdG9wNDc5MCIvPgogIDwvbGluZWFyR3JhZGllbnQ+CiAgPGxpbmVhckdyYWRpZW50IGlua3NjYXBlOmNvbGxlY3Q9ImFsd2F5cyIgaWQ9ImxpbmVhckdyYWRpZW50NDgwOCIgeGxpbms6aHJlZj0iI2xpbmVhckdyYWRpZW50NDgwMiIgeTE9IjUwMS43OTgiIHkyPSI1MDEuNjE2MTgiIHgxPSI0MDQuNTcxNDQiIGdyYWRpZW50VW5pdHM9InVzZXJTcGFjZU9uVXNlIiB4Mj0iNDIxLjU3MTQ0IiBncmFkaWVudFRyYW5zZm9ybT0ibWF0cml4KDEuMTE3NjQ2OSAwIDAgMS4xMDAwMDAyIC01Ni41OTY1OSAtNDcuOTc5OTEyKSIvPgogIDxsaW5lYXJHcmFkaWVudCBpbmtzY2FwZTpjb2xsZWN0PSJhbHdheXMiIGlkPSJsaW5lYXJHcmFkaWVudDQ4MDIiPgogICA8c3RvcCBzdHlsZT0ic3RvcC1jb2xvcjojNzVkNWM3IiBpZD0ic3RvcDQ4MDQiLz4KICAgPHN0b3Agb2Zmc2V0PSIxIiBzdHlsZT0ic3RvcC1jb2xvcjojNjZhZmI5IiBpZD0ic3RvcDQ4MDYiLz4KICA8L2xpbmVhckdyYWRpZW50PgogIDxsaW5lYXJHcmFkaWVudCBpbmtzY2FwZTpjb2xsZWN0PSJhbHdheXMiIGlkPSJsaW5lYXJHcmFkaWVudDQ3NzYiIHhsaW5rOmhyZWY9IiNsaW5lYXJHcmFkaWVudDQ3NzAiIHkxPSI0OTUuNzk4IiB5Mj0iNTA0Ljc5OCIgeDE9IjQyOC41NzE0NCIgZ3JhZGllbnRVbml0cz0idXNlclNwYWNlT25Vc2UiIHgyPSI0MzguNTcxNDQiIGdyYWRpZW50VHJhbnNmb3JtPSJtYXRyaXgoMS4wNDg5ODUxIDAgMCAxLjA2MjUwMSAtMjcuNjUwNzA5IC0yOS4yMzc4OCkiLz4KICA8bGluZWFyR3JhZGllbnQgaW5rc2NhcGU6Y29sbGVjdD0iYWx3YXlzIiBpZD0ibGluZWFyR3JhZGllbnQ0NzcwIj4KICAgPHN0b3Agc3R5bGU9InN0b3AtY29sb3I6IzVjN2I5ZSIgaWQ9InN0b3A0NzcyIi8+CiAgIDxzdG9wIG9mZnNldD0iMSIgc3R5bGU9InN0b3AtY29sb3I6IzgzOWRjMCIgaWQ9InN0b3A0Nzc0Ii8+CiAgPC9saW5lYXJHcmFkaWVudD4KICA8bGluZWFyR3JhZGllbnQgaW5rc2NhcGU6Y29sbGVjdD0iYWx3YXlzIiBpZD0ibGluZWFyR3JhZGllbnQ0ODE2IiB4bGluazpocmVmPSIjbGluZWFyR3JhZGllbnQ0ODEwIiB4MT0iNDIxLjU3MTQ0IiBncmFkaWVudFVuaXRzPSJ1c2VyU3BhY2VPblVzZSIgeDI9IjQwNi41NzE0NCIgZ3JhZGllbnRUcmFuc2Zvcm09Im1hdHJpeCgxLjA4NzEwNzkgMCAwIDEuMTAwMDAwMiAtNDQuMzcwMjYgLTQ3Ljk3OTkxMikiLz4KICA8bGluZWFyR3JhZGllbnQgaW5rc2NhcGU6Y29sbGVjdD0iYWx3YXlzIiBpZD0ibGluZWFyR3JhZGllbnQ0ODEwIj4KICAgPHN0b3Agc3R5bGU9InN0b3AtY29sb3I6IzdmYmNjNiIgaWQ9InN0b3A0ODEyIi8+CiAgIDxzdG9wIG9mZnNldD0iMSIgc3R5bGU9InN0b3AtY29sb3I6IzhlZTRlMyIgaWQ9InN0b3A0ODE0Ii8+CiAgPC9saW5lYXJHcmFkaWVudD4KICA8bGluZWFyR3JhZGllbnQgaW5rc2NhcGU6Y29sbGVjdD0iYWx3YXlzIiBpZD0ibGluZWFyR3JhZGllbnQ0ODI0IiB4bGluazpocmVmPSIjbGluZWFyR3JhZGllbnQ0ODE4IiB4MT0iNDIxLjU3MTQ0IiBncmFkaWVudFVuaXRzPSJ1c2VyU3BhY2VPblVzZSIgeDI9IjQzNi41NzE0NCIgZ3JhZGllbnRUcmFuc2Zvcm09Im1hdHJpeCgxLjA4NzEwNzkgMCAwIDEuMTAwMDAwMiAtNDQuMzcwMjYgLTQ3Ljk3OTkxMikiLz4KICA8bGluZWFyR3JhZGllbnQgaW5rc2NhcGU6Y29sbGVjdD0iYWx3YXlzIiBpZD0ibGluZWFyR3JhZGllbnQ0ODE4Ij4KICAgPHN0b3Agc3R5bGU9InN0b3AtY29sb3I6Izg0ZDVkNyIgaWQ9InN0b3A0ODIwIi8+CiAgIDxzdG9wIG9mZnNldD0iMSIgc3R5bGU9InN0b3AtY29sb3I6Izg0YThiYSIgaWQ9InN0b3A0ODIyIi8+CiAgPC9saW5lYXJHcmFkaWVudD4KIDwvZGVmcz4KIDxtZXRhZGF0YSBpZD0ibWV0YWRhdGE1NDU4Ii8+CiA8ZyBpbmtzY2FwZTpsYWJlbD0iQ2FwYSAxIiBpbmtzY2FwZTpncm91cG1vZGU9ImxheWVyIiBpZD0ibGF5ZXIxIiB0cmFuc2Zvcm09Im1hdHJpeCgxIDAgMCAxIC0zNzYuNTcxNDQgLTQ5MS43OTc5NykiPgogIDxwYXRoIGlua3NjYXBlOmNvbm5lY3Rvci1jdXJ2YXR1cmU9IjAiIHN0eWxlPSJzdHJva2Utb3BhY2l0eTowLjU1MDI2NTtmaWxsOnVybCgjbGluZWFyR3JhZGllbnQ0MjcyKTtzdHJva2Utd2lkdGg6Mi44IiBpZD0icmVjdDQyNTQiIGQ9Im0gNDAxLjU3MTQzLDUzNS43OTc5NyAwLDcuNjM2MzYgMCwyLjE4MTgyIDAsMi4xODE4MiAxNCwwIDAsLTIuMTgxODIgMCwtMi4xODE4MiAwLC03LjYzNjM2IHoiLz4KICA8cmVjdCB3aWR0aD0iNTEuOTk5OTg5IiB4PSIzODIuNTcxNDQiIHk9IjQ5OS43OTc5NyIgaGVpZ2h0PSIzOS4yNzI3MyIgc3R5bGU9InN0cm9rZS1vcGFjaXR5OjAuNTUwMjY1O2ZpbGw6dXJsKCNsaW5lYXJHcmFkaWVudDQyNTApO3N0cm9rZS13aWR0aDoyLjgiIGlkPSJyZWN0NDE3MyIvPgogIDxwYXRoIGlua3NjYXBlOmNvbm5lY3Rvci1jdXJ2YXR1cmU9IjAiIHN0eWxlPSJmaWxsOnVybCgjbGluZWFyR3JhZGllbnQ0NTk3LTUpIiBpZD0icGF0aDQ1ODktNSIgZD0ibSAzODQuNTcxNDMsNTAxLjc5Nzk4IDAsMzMgNDcuODMyNzQsMCAwLC0zMyAtNDcuODMyNzQsMCB6Ii8+CiAgPHBhdGggaW5rc2NhcGU6Y29ubmVjdG9yLWN1cnZhdHVyZT0iMCIgc3R5bGU9ImZpbGw6dXJsKCNsaW5lYXJHcmFkaWVudDQ2ODEpO2ZpbGwtcnVsZTpldmVub2RkIiBpZD0icGF0aDQ0NzYtOSIgZD0ibSAzOTUuNTcxNDMsNTE4Ljc5Nzk5IC0xMSw5LjQxMDcyIDAsNi41ODkyNyAxMSwwIDAsLTE1Ljk5OTk5IHoiLz4KICA8cGF0aCBpbmtzY2FwZTpjb25uZWN0b3ItY3VydmF0dXJlPSIwIiBzdHlsZT0iZmlsbDp1cmwoI2xpbmVhckdyYWRpZW50NDY4OSk7ZmlsbC1ydWxlOmV2ZW5vZGQiIGlkPSJwYXRoNDQ3OC00IiBkPSJtIDM5NS41NzE0Myw1MTkuNzk4IDAsMTQuOTk5OTggMTguMzUxOTEsMCB6Ii8+CiAgPHBhdGggaW5rc2NhcGU6Y29ubmVjdG9yLWN1cnZhdHVyZT0iMCIgc3R5bGU9ImZpbGw6dXJsKCNsaW5lYXJHcmFkaWVudDQ3MjgpO2ZpbGwtcnVsZTpldmVub2RkIiBpZD0icGF0aDQ0ODgtMC04IiBkPSJtIDQzMi41NzE0Myw1MTguNzk3OTkgLTE5LDE1Ljk5OTk5IDE5LDEwZS02IHoiLz4KICA8cGF0aCBpbmtzY2FwZTpjb25uZWN0b3ItY3VydmF0dXJlPSIwIiBzdHlsZT0iZmlsbDp1cmwoI2xpbmVhckdyYWRpZW50NDg0MCk7ZmlsbC1ydWxlOmV2ZW5vZGQiIGlkPSJwYXRoNDE4OC0zIiBkPSJtIDQxNC41NzE0Myw1MjguMTk3OTggMCwtMjQuMzk5OTkgMTgsMTUgLTE4LDE1Ljk5OTk5IHoiLz4KICA8cGF0aCBpbmtzY2FwZTpjb25uZWN0b3ItY3VydmF0dXJlPSIwIiBzdHlsZT0iZmlsbDp1cmwoI2xpbmVhckdyYWRpZW50NDc4NCk7ZmlsbC1ydWxlOmV2ZW5vZGQiIGlkPSJwYXRoNDE5Mi02IiBkPSJtIDM4NC41NzE0Myw1MDkuNzk3OTkgMCwyMS4wMDAwMSAxMSwtMTEgeiIvPgogIDxwYXRoIGlua3NjYXBlOmNvbm5lY3Rvci1jdXJ2YXR1cmU9IjAiIHN0eWxlPSJmaWxsOnVybCgjbGluZWFyR3JhZGllbnQ0NzkyKTtmaWxsLXJ1bGU6ZXZlbm9kZCIgaWQ9InBhdGg0MTk4LTMiIGQ9Im0gMzg0LjU3MTQzLDUwMS43OTc5OCAwLDguNTQyMTkgMTEsOS40NTc4MyAwLC03LjAwMDAyIDAsLTExIHoiLz4KICA8cGF0aCBpbmtzY2FwZTpjb25uZWN0b3ItY3VydmF0dXJlPSIwIiBzdHlsZT0iZmlsbDp1cmwoI2xpbmVhckdyYWRpZW50NDgwOCk7ZmlsbC1ydWxlOmV2ZW5vZGQiIGlkPSJwYXRoNDIwMC0xIiBkPSJtIDM5NS41NzE0Myw1MDEuNzk3OTggMCwxMSAwLDcuMDAwMDIgMTksLTE2LjAwMDAxIC0zLC0yIHoiLz4KICA8cGF0aCBpbmtzY2FwZTpjb25uZWN0b3ItY3VydmF0dXJlPSIwIiBzdHlsZT0iZmlsbDp1cmwoI2xpbmVhckdyYWRpZW50NDc3Nik7ZmlsbC1ydWxlOmV2ZW5vZGQiIGlkPSJwYXRoNDIwMi0xIiBkPSJtIDQxNy4xMjAxMyw1MDEuNzk3OTggLTIuNTQ4NywyLjAwMDAxIDE4LDE1IDAsLTYgMCwtMTEgeiIvPgogIDxwYXRoIGlua3NjYXBlOmNvbm5lY3Rvci1jdXJ2YXR1cmU9IjAiIHN0eWxlPSJmaWxsOnVybCgjbGluZWFyR3JhZGllbnQ0ODE2KTtmaWxsLXJ1bGU6ZXZlbm9kZCIgaWQ9InBhdGg0MjA2LTktMiIgZD0ibSA0MTEuNTcxNDMsNTAxLjc5Nzk5IDMsMiAwLC0yIHoiLz4KICA8cGF0aCBpbmtzY2FwZTpjb25uZWN0b3ItY3VydmF0dXJlPSIwIiBzdHlsZT0iZmlsbDp1cmwoI2xpbmVhckdyYWRpZW50NDgyNCk7ZmlsbC1ydWxlOmV2ZW5vZGQiIGlkPSJwYXRoNDIwOC0xLTEiIGQ9Im0gNDE0LjU3MTQzLDUwMS43OTc5OSAwLDIgMywtMiB6Ii8+CiAgPHJlY3Qgd2lkdGg9IjIzLjk5OTk2OSIgeD0iMzk2LjU3MTQ0IiB5PSI1NDYuNzk3OTciIGhlaWdodD0iMS4wMDAwMiIgc3R5bGU9InN0cm9rZS1vcGFjaXR5OjAuNTUwMjY1O2ZpbGw6Izk5YTFhNztzdHJva2Utd2lkdGg6Mi44IiBpZD0icmVjdDQyOTUiLz4KICA8ZyBpZD0iZzQzOTIiPgogICA8cmVjdCB3aWR0aD0iNDcuOTk5OTg5IiB4PSIzODQuNTcxNDQiIHk9IjUzMC43OTc5NyIgaGVpZ2h0PSIzLjk5OTk4MyIgc3R5bGU9ImZpbGw6I2ZmZmZmZjtmaWxsLW9wYWNpdHk6MC43ODQzMTQiIGlkPSJyZWN0NDI2NyIvPgogICA8Y2lyY2xlIGN4PSI0MjkuNTcxNDQiIGN5PSI1MzIuNzk3OTEiIHN0eWxlPSJmaWxsOiM0ZDRkNGQiIHI9IjEiIGlkPSJwYXRoNDE2NiIvPgogICA8cGF0aCBpbmtzY2FwZTpjb25uZWN0b3ItY3VydmF0dXJlPSIwIiBzdHlsZT0iZmlsbDojNGQ0ZDRkIiBpZD0icmVjdDQxODMiIGQ9Im0gMzg2LjU3MTQzLDUzMS43OTc5OSAwLDEgMSwwIDAsLTEgeiBtIDEsMSAwLDEgMSwwIDAsLTEgeiIvPgogIDwvZz4KICA8ZyBpZD0iZzQzODMiPgogICA8cmVjdCB3aWR0aD0iMTkuOTk5OTg3IiB4PSIzODYuNTcxNDQiIHk9IjUwMy43OTgiIGhlaWdodD0iMTYuOTk5OTk0IiBzdHlsZT0iZmlsbDojZmZmZmZmO2ZpbGwtb3BhY2l0eTowLjc4NDMxNCIgaWQ9InJlY3QzNDMyIi8+CiAgIDxwYXRoIGlua3NjYXBlOmNvbm5lY3Rvci1jdXJ2YXR1cmU9IjAiIHN0eWxlPSJmaWxsOiMzNTgwY2EiIGlkPSJyZWN0NDE2MCIgZD0ibSAzODcuNTcxNDMsNTA0Ljc5Nzk5IDAsNCA0LjE2NjY3LDAgMCwtMyAtMS4wNDE2NywwIC0xLjA0MTY2LC0xIHoiLz4KICAgPHBhdGggaW5rc2NhcGU6Y29ubmVjdG9yLWN1cnZhdHVyZT0iMCIgc3R5bGU9ImZpbGw6I2ZmOTk1NSIgaWQ9InJlY3Q0MjM1IiBkPSJtIDM5NS41NzE0Myw1MDQuNzk3OTkgMCw1IDQsMCAwLC0zIC0yLC0yIHoiLz4KICAgPHBhdGggaW5rc2NhcGU6Y29ubmVjdG9yLWN1cnZhdHVyZT0iMCIgc3R5bGU9ImZpbGw6I2Q0NTUwMDtmaWxsLXJ1bGU6ZXZlbm9kZCIgaWQ9InBhdGg0MjM3IiBkPSJtIDM5Ny41NzE0Myw1MDQuNzk3OTkgMiwyIC0yLDAgeiIvPgogICA8cGF0aCBpbmtzY2FwZTpjb25uZWN0b3ItY3VydmF0dXJlPSIwIiBzdHlsZT0iZmlsbDojN2FhYmRjIiBpZD0icmVjdDQyNzIiIGQ9Im0gMzg3LjU3MTQzLDUwNS43OTc5OSA1LDAgMCw0IC01LDAgeiIvPgogICA8cGF0aCBpbmtzY2FwZTpjb25uZWN0b3ItY3VydmF0dXJlPSIwIiBzdHlsZT0iZmlsbDojNzFjODM3IiBpZD0icGF0aDQyNzUiIGQ9Im0gNDAxLjU3MTQzLDUwNC43OTc5OSAwLDUgNCwwIDAsLTMgLTIsLTIgeiIvPgogICA8cGF0aCBpbmtzY2FwZTpjb25uZWN0b3ItY3VydmF0dXJlPSIwIiBzdHlsZT0iZmlsbDojNDQ3ODIxO2ZpbGwtcnVsZTpldmVub2RkIiBpZD0icGF0aDQyNzciIGQ9Im0gNDAzLjU3MTQzLDUwNC43OTc5OSAyLDIgLTIsMCB6Ii8+CiAgPC9nPgogPC9nPgo8L3N2Zz4K;" vertex="1" parent="1">
          <mxGeometry x="-100" y="160" width="647" height="647" as="geometry" />
        </mxCell>
        <mxCell id="yYybROheOo7XdbPep2oi-5" value="" style="html=1;shadow=0;dashed=0;align=center;verticalAlign=middle;shape=mxgraph.arrows2.jumpInArrow;dy=15;dx=38;arrowHead=55;rotation=-170;" vertex="1" parent="1">
          <mxGeometry x="440" y="260" width="100" height="100" as="geometry" />
        </mxCell>
        <mxCell id="yYybROheOo7XdbPep2oi-23" value="JIPipe" style="shape=image;aspect=fixed;image=data:image/png,iVBORw0KGgoAAAANSUhEUgAAAgAAAAIACAYAAAD0eNT6AAAACXBIWXMAACgAAAAoAAEgaXYHAAAAGXRFWHRTb2Z0d2FyZQB3d3cuaW5rc2NhcGUub3Jnm+48GgAAIABJREFUeJzs3XecXXWdP/7X+9wpKUAoaZMGAgKiYsFeQUMQCHUNyi4qNdIVlJbCeJEqVQiQREpkXV2NCkwmCQTQ7G9XUZRdddf6RaUkmUxBWiDJzL3n/ftjZsKUW075fE59PR8PNHPvOe/PZ2bunNf7nnZFVUFERET54sQ9ASIiIooeGwAiIqIcYgNARESUQ2wAiIiIcogNABERUQ6xASAiIsohNgBEREQ5xAaAiIgoh9gAEBER5RAbACIiohxiA0BERJRDbACIiIhyiA0AERFRDrEBICIiyiE2AERERDnEBoCIiCiH2AAQERHlEBsAIiKiHGIDQERElENsAIiIiHKIDQAREVEOsQEgIiLKITYAREREOcQGgIiIKIfYABAREeUQGwAiIqIcYgNARESUQ2wAiIiIcogNABERUQ6xASAiIsohNgBEREQ5xAaAiIgoh9gAEBER5RAbACIiohxiA0BERJRDbACIiIhyiA0AERFRDrEBICIiyiE2AERERDnEBoCIiCiH2AAQERHlEBsAIiKiHGIDQERElENsAIiIiHKIDQAREVEOsQEgIiLKITYAREREOcQGgIiIKIfYABAREeUQGwAiIqIcYgNARESUQ2wAiIiIcogNABERUQ6xASAiIsohNgBEREQ5xAaAiIgoh9gAEBER5RAbACIiohxiA0BERJRDbACIiIhyiA0AERFRDrEBICIiyiE2AERERDnEBoCIiCiH2AAQERHlEBsAIiKiHGIDQERElENsAIiIiHKIDQAREVEONdgsftP6Fw4Qt/ABFW2yOY7r+4n4lP0s7Lrd2xvdR1sPmbTF1nwofres3DD21Z3GzBZBS9xzGWT0T8fXi95/aRHtU7i/vvLIKf9rbyQaav2KZ8Zsw5ipjugecJ0JBYjjanlnONIAF+MdhbrA6w60D05hC9QtqyM9UpKuT54xuQuAxv09ECCqdn4PN/7kpVMF+i0AhcHHbIxUs2bAAYPPU/186dXf3b6m919+xE7dwVanJPtGW8/O25vkCQBv7X/E+6vE05IBXnRG/07VQs2BaiP/vFTloiuPmnir0aFyqliE85FZXXsBeiCgBypwABSzIGgRoEWB3WoWqP0L7wOkC9BNCjwL4I+q8gcH5T+P38X90wfnzdhq7juhWqw1ADf95MUNAKYPfp2W8A++qpXwH1hZF1562B7XhClByfT1R3rOgspd/V/5e5XUXTo/4T/41JY/vj5p1x/Ms7nPIZvWr9i8V1n1IyryYVG8D8ABAMYF+t2Fe925AP4kgl+4Kj8viD7xX89N/VNraxL356afrUMAAoZ/yJpvEMHMkCUooRQyQwb+5W+9sAsYWSXimjXCHwAEO711bMduQEuP0WEz6NF7e6Y50nc0VA6ByEcBTAcEMuSHG0P4A/3npR2oigNF9TRXgQ/N6Hzp0Xv0J4CsLWnp4SPOmL4hyNRoNKvnAAAxHOjJWPhTHmQw/NVO+FNwP7236x1lKR8tjhzrODgYkP7es8LPNqbwr/KE7grgBMA9oUEcrLtn8+8EWOs6+oPDT235b/+j0iCrDYCtP1lvLxpDNf2sxfAny5L/Lh1Ww59/U/6sX7F5rxJwigCfh4M3CeSNH2KVH2aywn/0gwI9CMBBjotLH7un488Q+Z6Uy9/75JnT/+J/FvlmrQFg+BOZZeOkPxvhb6sg/6a8Wb/imTEljD3BAU5TyKECHX25d1LD3+fSCuwP1a+p43zt0Xs6nhTVpeMnuP/OEwm9sX4IwCSGP+VVmsLfXF2f4Z/zP7z1K7qnunC/pBj3RYHuVvWMiSSH/6gnfQ3wPhV535ZXCjc9dk/HCnHdpdwrUFtqGoDEhr+RmkTVMfx9LZ47j67ofrOj7lch+AKA5pr7+E3+nKyHf2C7uYoLIc6X1929abXr6DWfOm36E8aqZ0gqGoDkhL/NQtXx+pf8SkX4xR3+OfX4fZsPhOMUHegJkJF3dfUX/r5/zpGEf8C3aENPF4DMdVyZ++jdHesVes2cM6Y9GqhoRiW+AUhW+Ee/658bwPyyFf5GX1PGw39UaYMLZsP6Fd1Ty3C/BkdOh2qFbbjl8A8ghvAfWe0QQA5Zd3fHbwD5rlvCyk+dNfWZQINkSKIbgGT9XTP8KWEyGf5Vj1zXnEMetC/vGDeuSc5XyAIAu3gOTtPhb/0wgtnwH+GdgL7TacA31t3d8Zg4uPyw01p+HWjADEjshwHZOlaUlpP+crRdowrq/v7jDn8rNRn+1Ty2ouuEsU3OXxRyHYBdPK+YgPD3txfXxplZVc1WF0+uu7vjX9cv75gYrES6JbIBYPhTnqUi/NVO+NtaPK3W371xxuMrOh8U6I8w5O6qlXn/oWQu/IO/HgTAyb0O/vDIPR3/HLhKSiWyAaiK4U8Zl4rXlMXwT8VJj9GQn9y3+bxyQ8PvARxbf3Hvu/6zFP5hVx1ikij+7dFvdbSvu29Tbm69nrgGIDkn/TH8KVo2wo/hnz5r79s86bEVne0qcjs87e5PUfibGmBwTcPnIyhwFEryv498a/OJBisnVqIagDyHP+VbWsLfVkGGf79Hv935ySaR3wpwpLc1Uhb+o55MTvgPMUGg31+3vGPZ2tufbjY4SuIkpgHIe/jbOu+Bki9N4W+uLsN/qPVFNDx+X9f1juJRAC3e1vIe/oFYD//gLH2K/XCC+c6Y8T9bu7xrnwhGi0UiGoDkhH88GP5UU9yvAYa/VT+7t2fn8l6dD0D0EvSflOaBv/D3/SOMJPwDvkUz/XqovcfkYEfKTz6yfPOhhkdNhNgbgGSFf8KO+2d8w0ceWD/+6q1YbOGfcevv6d53m5R/CcVc72tZDv8AMhr+g3aH6Lp1yzefbXj02MV6I6BkbQCSG/6q2OW6x1/e28IUfNge7/Ae+ZllU6/76pgtpS0XJvWTwzIX/qNKG1wwfR6/r2s2CvgBgN28rxVB+Fs/jJCq8B/UoKJ3rlu+6U1PdEy7rLU1G3doj60BsPXONy3H/f18/yLyz3DLda9RNTbPUd+/AiiYql5piAALVF7FzyzLTgGv7dKIq9a9sBGKP0L1Z4LCY6Vf7vbz2P/A4w5/KzXVX824z3uw6LH7Oo8VwfcBhDvJLAHh728vrpEtdHgBT5RUkYs/MG3TjKeWd3zh4PkH95meVtRiOQTA8A/6pPHVYqlrK/wDU0wHMBsirSrufxbe/8IzVz3ywlXXPNLj8WQsw5IQ/srwt+Xx+7pOFgc/hO/w975xylz4W98r4XUIBYCTutHyo/UrnhljbE4xif0cgGEY/vHTkf+0EQNhFjCySr1iM6FYWFb525UPv3Bb8ZFXdjc5hIfxba9St2DEv/UoF4/V49/efC5Evw31u/fV+3fJ8K9X0PPDVZcSwdHb+5rXrL+zeycT04pL5A2AvxdNyJp+1oo7/JNQl+E/8p9jBDjf0b4/Xflwz0kmhzIlTeHvqW62w/8SqCyB7+2u9+P+WQr/sKt6reU3/N94SA/d3lhatfKWDWNDzCpWkTYAeQ7/uuLe9Z/C8DdqdPgPNUkg373q4Z67b1lp8Y897vCzWDD34b9i8zlQud7/mikKf1MDDK6Z6PAf/H89ZOfxzoNpvWFQZA1A3sPfxq7/vId/1HtpFHL6ll3G/vTax1/dI9KBwy/uuaC5ugz/QT9Z0fU5QG73v2bKwt/gLyWKG/2EDv8BAsxxmsd+d+VKw2dKRyCSBiA54R+PPIe/n/EjWK1mMY9B9f5S3/bHiw++tKvp8WPD8LfmsW93/ZNC74PF3f6BRBL+Ad+imf4FB67n53cgJ0x4seOOoCPFxXoDkKzwj/7df97DP9Hf/5Bi3msqALzDGVNqK643cBZwgIsN4/3+PRY0WrNS9eR79N6O94jq/fB9Da2/8I/iZ5K18K8/jP8GTKFffGTZpks9zCoxrDYAydoAMPyrFYol/JNQM1j4D/qos3WnW0xOx/cMDBWL9ffkY/A0hf9P7unY03GcdgDj/K0ZQfib3OPC8B9OcO26ZZs+43Hp2FlrAKI6VuQNw792oRjC3/QuyIDFAoZ/P8FZVz7S9U+GZhRkBgmr6bOVTFOi+/Cze3t21oLTBmBK6GIxh7//WgHDP9REvBe0Gv79BIL7Hv7W5vf6Wism0d8HIPJd/wz/qOvmIvwHiDpLrn/sxQlhpxR8BsELpin809IrFItwtjnl7wE4yP/a3jdOUYW/v0O4IbbQ1huT6H5mLjAW6v748bu7wjeAlkXbADD842d5139awt/gClO3l0uXB5uMoRkEKBjxbz3KxWP1kT27FgI4yv+aJtpRsyvlL/zDT2RIhRl9bvl7Sb8yILoGgOFvp27AQnkPf5MbBFE579q1mycFmZKZGfgraOu37qluhsP/8fs3Hwpoq/81ve92zlL4h13Va63Af+uhX6t66M4vblrkr0q0omkAchD+tuQ5/I2yFP4Dxpek8XRf8zE9g5gL5j787+6aAlf+DRbP+I89/E0NMLhmpsN/hyvWLu+Y469adOw3ADkJfxvv/vMe/pHvpQlRU6GnAhCTNY1S03UZ/oOKRTgo6PcA+PzwqJSFv8FfSk7CH1A4UL1/3dLOyf6qRsNuA5CQPUM2a9atG3f4MfwDhF+gJfcrrnvxrZ5XNDK6v4IMfzs+PKvzSxAc6m+t8MHjt3yoVQzu+o/iLn/eWA9/AIAAU1wpL/dXORr2GoBYwj/6ff15Dn8/40ewWs1ilsMfAOCUy7M9rxyVuMM/cPV0+Om9m/YXwdX+1vIXPFH8TFIb/oHf/UcT/kMc+/CyjpP9jWBfsj4OGPbCP/KNVdzhF0H4Jz4AIgx/AHAFH/RcIPQMvBeL9ffkY/C0hf/6IhrKTuHbAHx8QFQE4W83yPwPMLhWXsK/uiXr7tw0M9iqdiSuAQiG4V+7UAzhb3oXZMBiNsK/GgEOCLN+8sPfZyuZtkT3yd1z81cEeH+oIjGHv/9aAcM/1ES8F4wi/IMMMfDEBNfBveuLaDA8YmCJagCMvLTyHv4R1M17+NdY+k2+CgWeQRw17YZ/2nqFdfdtmqkiPi/x8r5xiir8q2eVoQEG17LemCTgZ+alnmD2timb7vI/qh2JaQDyHP5GWd71n5bwt7VCnaV3Khb9/03ZeHcU8W89ysUToUGcW6HYyfsalvdFMfyDrxx+eH/lBWc8smzTqaEnY0AiGoC8h7+NXf95D38bGwQPS8vYd/WMN1zTH4vh76luDsL/J9/umqOQE7yv4X23c5bCP+yqXmsF/ls3+Vr1XUtuWXv3xhn+1jIv9mMRmQj/JNRl+Pusazz8AQW2NjrG7gXgW97DP4Ju4qnlaHSb9Q7vv+QUhX+wpV0A3QP/vayKrSJQ1R33xBgLYAKASQP/BXvTmaHwH1hpglOWGwF8NsjapsTaAKQl/OsKOGiew98o3+EfuHzIhSyymKapCH9LNUd6uanrdFHs623plIV//XqdUPxcHXlCXPy+4Dp/fmG3yc/Mm4eyl7GLRTjvn7J5VkNB9y8L3iLAeyH4EBR7BZl0esN/x6onrl266fojzpr2P8GrhBNbA2Ak/I3UDDkqw99OXas1DS+ZkPA3N40Uhn8Ev4MnVm4Yq2j0eOJf+ODxWz7UKlV2/YvivwH8GA1O2+xTpvyv/1Hf0NoKF5j6DIBnADwy+PhjyztmuY4cBegxAD4JoDHMOG9IbvgPEAd6NYAjQ1cKKJYGwEb42ZLn8PczfgSr1SzG8Ddc0GjNStWTXnS0119vOgfQ6fWX9Bc8UUzfz3ZMgFddxYoCynd/8owZv7M5LwCYPb/lOQB3Abjr8bu7ppTF/ZyqninAfsHf/Sc+/PvLiBzx8PKOj3xqfst/manoT+QnAQb/uUW/6z/v4Z/4AGD4D/0/G6UNLmgv/KP4Nfzs3p6dAb2s/pIRhL+9IOsR1UUNhW2z5pwx9YIown+kT54xuXPO6VNv/MXGlrfAxfGA/mLkMrGHv0EKwHX1moiGGyX2kwC9YfjXLhRD+JveBRmwmI3wj6Nc0PFtHPCxEf5WRBT+ALCt4M6HYmLtpZIX/h5rbRfFbXCbr549f7eXDY4QWP/hgpYHATy47p5NR8OV6wG8JYrwDzJE4DIKCPDRR+7aNPvws6c9Zqayd5HuAQj2c2P41yoUy7u/jIe/je/fhjSFv/EfWYTh/9RyNEL1S75XTED4V13ljSfWOo5z4Owzpl6SlPAfac7p01Y1bWo5CNALAGzxtbLpbZXh8B/kOrjYTGV/ImsAGP7m2dj1z/A3Ws4O4+HH8K/l5aauzwKocw93y/uizId/p6p89rDTpx75yVMn/y3IlKJ0SCtKc86cdntB8VYIHq68VPhXRRzhP/DgYQ/fteEgMyN4F0kDkOfwN0pH/jOf4W9rhTyHf0IW91Qw6l+DQi+qt4SXh2o87Lt84FX60+dRt9zwrjlnTPl+kOnEafb8lucOP6PlSABfBrD9jWfC7/qPbPtfsZaKitR5nZlnvQHIRPgnoS7D32ddw+GfBBbD31PdHIb/4/d1zQbwzupLpCj8gTJEv3LY6S2HHz5/YkeQ6SSEHn5myzcdFx8BsCFN4V+51I5HT2pfusHDVSbmWG0A0hL+dcW96z+F4W+U7/APXD7kQhbZSFM/peMOf0s16xLMr/5kisJf8CKgRx52WsvNQaeTNId9seXX0N73AfLksCeSHP6j6g17oKlB5VxzI9ZnrQFIU/jbeAHkPfzjDQDDS8a9udRh/2euoNeaSQj/GH4H65d3TET/zWkqCP+usyaD4a/AZhH5+GGntawLNacEOnz+nh19ikMV6P/eUhX+FZYTOTXKjwtOxIcBxSnP4e9n/AhWq1mM4W+4oNeaCQj/uH4HpSY5FUDz6Gf8hX8U068xxrMNJecjYe/il2Rz57e8Pqax91i4aPezXvzhX+lBnfr6lI2fMjd6bQlqAKJ/95/38E/8blqG/9D/M1fQaM1K1c0WjevXICoVPrI1gvA313R1leEe/on5k/8aZBppcsgpe217ZfeX/gmAp2vpo3pN+Qv/HU9F9lHBCWkAGP7VCsUW/iaPPwaRwvCP9/v3XdrggtkL/8dWdH4AgrcMfzR54V/Dyy6cOZ86bdqfjVVMuHnzDuwtYNunBRJub4eh30Gg8Acggrlrb988ycwsaktAA8Dwr12I4R/x6PF//1Zq+mwlE7D3I84pOIIT6y6UgPCvsoqrZTn58NMm/zbINNJs9vy9X4bjHAvgH9WWiWLXf9DwH9CEhvK/mJlJbTE3AAz/qOvmPfwT//0PFExT+Cf/+/dNVPHp4Q9ZbkdNvu5cfG3OmVN8HQ/PkjlnTPm7AzkJgDvyuRSEfz8Z+fqzI8YGIBvhb5TlXf+JDz/fxRj+ngomZ3FPBeP+U3zs3u4PY9id/7zv+o87/EXxny9NmBrbh8skxWHzW9YJcNPQxyLb/ocN/34fXHPnM1PDT6a2mBqAhIV/Euoy/H3WNRz+ASQ//LTCvzwt7rO6IQkIfwAQxx3y7is94Q/gZZT15HnzUA4ylawpb399MYDfAdGFf+VSgQZwxGk6MtRkvAxie4DRog//uuLe9Z/C8DfKd/gHLh9yocCLx1owLd9/3C/DIQY2vKkKf0D10tnzW54LMpUsOuL8fbc7KqcrajREpsN/VL3gAwjcKvegMCfijwOOJ/xtdH/Rhr9uB+T1kOUDLmB0Nf81BQLFrkFHT0v4ma2bsvC3VDOI9Ss27wXIm/2EfyDGwx+//vmGlm8dFnQ+GXXYF1t+/fCyTcsgOGfUk9bDP1xBhcxpX94xbu78lkDbfi8ibgCqY/jXqCxy34LD9jjb1LBpcuO6zvFbtWHIR4BmLPyN101h+Ccl/QGU1TkcMurcsZrfuO/pmw9/hejZra2jT3ojYFtz78IxvU0nApi448FIwj90wIxtcEsfBfBIsEL1RXgIIPp9/ZkIfxoi3vC3JbbwD1w96UVDEHf0m2iT4R+Ah+3YDw87reXXEUwllY47Za+XBLjBRm2L4d//pet8OFghbyJqAKLf9c/wz5r4wz8tvyXP8/TxDdkK/yT9TItFOAA+MexB0+Fv/jBCWct6hcGqmdQHWQJI/ycgGvod2A5/AIAg7Q0Aw792oSRtApPK8M8ok+Hvs5WM+xtKWPgDwAdndB4IYLcdDyQg/Kuuojv+/0dz5rf8Kch08mTu/JbXBXprYsO/+jjvf2r5U41Giw5huQFg+MdRN8/q/kwZ/vEf97cU/mFrFhrwfmvj2Ah/AAK5Jch08mhrU+9yAFvqLliHlfCvsOrAQ+O7MO3Q4IVrs9gAZCP8jeKuf6vyHP4JWdxTwSSGPwDAxfvqFUxS+EPwq9lnTPlFgBnl0nGn7PUSgPtDF4ou/Pv/XS4dErx4bdGcA5Di8Odx/3RIbKhY5fOkP4Z/baIfqFUw9vAfuZxihf/q+SbqfjvM+pV/N/bCHwDEdd4afIDa7DcAcYd/Euoy/K1KRfgZx/A3qX15xzgAb010+A9/srfQWP6+/xHy7fCzZjwJINA5E5V3/dsNfwBQB3sHH6Q2uw1ABOHvdw6WV6tZiOFvXirCz7iUhb+lmibrNje5+0FRMFTOdvgDwOOf/Pz0F/yPQgL8wO861Y/7B+Sv1sz6iwQT2X0AYtkAMPwzLS3hZ1YKw9/SD9VkWUcb9jc2jv3wh8Bd438UAoCy+PvZGT/pz/9epglrb//HLsEGq81eAxDBlpThn182wi/5fIZ/4OpJL2qjrFZsAKJ4CfnfjimccsNaO7PJvl91zPgVFN1elk1A+Pc/3/TafsEGrC2SPQBpOemP4Z8OtsI/Lb8lz/P08Q3ZCv9o//aDjyYVGoCojvv7q6WAYuMn5k/+q8GRcqW1FS4E/1VvuaSEPwCo67wp2KC1WW8A8hz+hiuTV5kMf5+tZNzfUIrCv39t2W/414GKmFulVvAIful/JBpKUftnaDz8a43jgQh2NzrwAKsNQN7DP+5tcBbV/Zky/OM/7p+y8O8nLaGqRRX+/f9mAxCSI/pkteeshH+FVX1V05Q1ALkL/4p1kx8tacLw97y4z+oGpTD8+z8DQCcHrhZp+AMK/NH/iDRUudRU/WeYtPDvX2O3+sv4F+GnAYZjI/yN4nF/q1Jx0lvcBXMX/mZ8cO/OiQAaYw9/j0u7gr/4H5WGOvKcSZshUh75eOUrVuIOfwBI2R4Ak+y+SzdbyEb4572VsHHSX/LDTyv8y9PiPqsbEkv4mznm5pQxJRHh7+38IffVnV/6u/+RaRTVrcO+rLxQiPoGqyn2CD6R6mw2ANHkVty7/iMIf9Hc9wC1JSD8Aq9a8XebsvC3VNPXiINfNpZdv5UcxaSww4dexXu9F+fNO7DX/+g0kih2NADVj/sHZLqWSIPBijvYagAUAW+3WKlQsCeNr1azkM13/qr4g9HCWRJ3+Gm4uio64u8kheFvKf09H/d/48vNXzt8xot+xykJxvtaIZLwr7pGp//RqRIVeQ2oFf5mAybUn4lqKczq1VjbAyDingvgH2Fq5Dn8h3is1Pzq3baKp1rc+0VChj8AOGMnfh/AgyMrpSX8bf0OAoT/qxCdH+RIREG12e86fhgMfyDkNpXeoMCWxIf/4IoVzlcwwcpuBQC45JMTf3rLExtm9L6y034qJWvj+CUpqdkHQMruS4uOmPxX2Dn8k27WT77yVixszdZDUAImHl98ePNe5XJD+n7REvXflIz6sixa7m1w/98Nc6a8FmQsFzpGvH4X1ncT1x1ga70FyCPBVlQ8YJSw8O//t5U9AFaD+cIPztgK4Lc2x6Acykj4D9X6qanPAHjGYEnyzBnj6bdp8nUX8F2niG73PwuqyNUKzZStU3lDrqh29gCk4ioAoh3iDn+LNSkejmhT3YUSEP4AoK70+Z8JVTHiZ5mYM/5Hk5SdA0BkXBLCP8hBZko01TrbwYSEPwCoVN5pTUFI4xv/TnD4A4Dqq0FL1sIGgNKB4U9xsP664ysqLgp3zOC/QhTx8lDgWjuecuTloGVrYQNAmcTwp9CsX+7HV1SsxGlOQ/gDgKNsACiv4r7cjdvp/InkWn+Kk6j6u//DUNavBhm5iLIBIKonaTf6oRSK90Y/FBkdG2w1Xw8bIq/YqMoGgDKD4U9xiCr8bd1xMa8EMsb3Sjav9a/BUZd7AIgiw/DPJ5OHmxj+iabqcw9ATOEPAKoOGwCiapJ+ox9Kgfjv8ue9FIUnqH//hzqiCH8AcBvKbACIKmH4U2gJutZ/1Fp8MVqi3u+EG+EZ/5UWL7kFNgBEI/EufxRagFvrMPzT7ZHlz7Z4/hSLmMMfAJrKY9gAEA3Fa/0pDlGEf9hVqbZyuXCopwUTEP4A9Ml/7L4l6LC1sAGgVGL4UxyiussfT/qzzJEP110mGeEPQLe3ttq5BTQbAEod3uiH4hDVjX4Y/vaJ4oM1F0hO+ANAoI+59oINAKUKr/WnOPByv+xYc0fHnoC+s+oCMf4OKoQ/BGLlg4AANgCUIskPf269s4jhny2O434OkMpnAMZ5rX+Vr1TwUtDh6/F+GQRRljD8yQOGfzTab39+kQLHSxlfn/vlmQ/aGmflShTGQ0+TSlcAJDD8AUBd/UfQKdTDPQCUCrzWnxKFN/oxpu2bz39MFVdC8W518MOHbn9utq2xdv7HhmNF5E1el4/quH+tFUXw96DV6mEDQImX/PBXCzUpbrzW3771K54ZI44uxxsX5RdEcYOt8VzFlys+kZiT/io9qX8MOpV62ABQ7jD8qR6GfzRe3VJYBMj+Qx8TyDvX3PnMVNNjrVm26TCBfHTUE4kJ/8orO67zP0GnUw8bAMoP49f653zrnVG80U80Vt/2/NuguLjSz6Gvr2FPw8OJuPr1UY8mOfz7O8S+LX36RNAp1cMGgPLBYvjnfDueKbzRTzSKRTgqsgyo/IE8ItjN5HgP37XhXyB4/7AHEx/+AIAn5l04Y2uQKXnBqwAo+xj+gQggX1vT/Q6I7gUxQspTAAAgAElEQVQXXRg/+cnWQ1CKe1628EY/0Xn3bhvOVeiHqj0vosYagLW3/2MXNMr1wx5MR/jDEVkeYEaecQ8AZZvF2wZmeTu+sK1ryhVrun/lAv/jqjzgivzMfb3rr8WHuw6Ke2428HK/6Dx056aZEPfqmgu55vYASOO2mwBM2/FAwm70U+0hAXRL9ysrbc6HDQBll8Vr/bO+HS80OEsBHDz8UZnluvKDC9Y+3RzLpOLA8DfOKbl3ArIzgOrX3gv2MDHW2rs6jlPoGW8UrjJe0AEMXetf6SEFNs1rPbA3wKw8YwNA2cTwD6z4cPeRAj2uytP774oJX4l0QnFh+BvXvuT5z0B0br3lBDIj7FgPL928F8S9e8cDKQr/ftLmaz4BsAGg7LF4o5+sb8eL7R3jXBd3VF1AAXGxaPHarn0inFb0eKMf41Yu/9sEVdxcaxl546/X8816Kmlf3jFOpfwAMLAnIcbwr7tilVqi+njQUbxiA0DZwhv9hOI6hasA7DXsQR3yX7+xonJnlPOKVJKv9bfyobDRGLu98WYMPRZfiew4yXSvoOOsXImCU3b/FYrqH/iDJN3op6LXXnOaH/E3kn9sAChzGP7B9J/gJ+fveGB46A8jijmta3pOimZmEUpy+Kf4Rdh228ZDFTh12IOV3gzrjivTZhWLgfJJdnph010iOKHmOAEKB1nRy41+qqz343nnTNribzT/2ABQdli63M9zzRRvoE9ciYLryt1QNNQK/mFUby4++NKutucWGYPhH3ZVq7UitvKWDWNF3GVApU/gGWVwmeZ3THhmls+hZM3SjTcBeuaOR5Ic/jXqievc72+0YNgAUDZYvNbfxuJJc8D47nOheK/P1aZqU+laKxNKhITc6Cflr62xjboYwJv9rKMAHCn4ueRU1izddKsAFw4rUqFuIBGGP4CNr0+d9lN/IwbDBoDSz2L4e6qb8g30wkd6WkRxZZB1VXV+cXVX1Ru6pIbB3yHD/w0PLdnwdii+GmhlwTu8LLb29qeb1yzbeL9AL9jxYHrDHxBZMW8eyv5GDYYNAKWb8Q1kvsIfAAolXQJgQsDVHRey7ItPodHknOLHy/3CKhbhOOouU1R4bdT4OenAqY4KrdsAPH7Hxj3QOPYRUZzspbZtocMf6HPKWGpqPvWwAaD0ivta/wxs7FvXdh8hGHLClE8Dpwu8bfLm7osMTitmCQn/lL++3rXHc+cD8kG/6znof/crIjUbgIeXd3ykt4D/AfDxHQ+m7lr/EQTfP+L86Ru8jxoOGwBKJ4Z/aMX2jnGodc1/FaOvCgQEaC2u7trb2ORik+zwT8vLrv22jlmiclWQdd3BPQaKfdbevnnSyOfXF9GwdunGheq6PwUwc8cTaQ9/ABD3Vu+jhscGgNIn7vDPCFcKVwLwfMOVOhcHjC1DfDcTyRLicj+TUh7+AKBSWgJgp5BlpKR9w84vefiuDQe9PmXjzwBchaEfZhdj+Ndd0Xut9UedPeupoCMHwQaA0sV4+I8qbXDB5Cq2dR0EyAX1lqv0br+GT7Wu7p4XbmZxCRH+EZz0l6aX3Krbnz8JwNFVF/DzzlrwUaD/WP+apZu+qSJPCfA+T+t6HybUijUX91FL4F7jb+Tw2ABQ6vBa/3CKRThuQZai0slZ8B36I9e9LX33Bgh2ez2G/2gP3LFxD0BC78ZWoA8ARHHIw0s3XNbbgKcHzvIf/RH2ST3j31+t9UeeO+tRf6OHxwaA0sPS5X55Cn8AKB/cfQ6AUSdnBQ39Eaa6DX2Bjv2mDsN/lAbXvRHQyUHXH/L9NvZ/rQeryrVQVG4qkxr+fomzMFyBYNgAUDpYCn9biydVcU33VBF8ffDrMO/2q1HB2Ve0d/k++ztNorjWP20vufYlGw4B8AUTtWTIv7TaDzvJ4e+nnmL1UedM+7m/GZjBBoCSz2L45+WM/0Flxe0AdjUd+iM4kCzeG6Afw3+0lbdsGKuq30K92/0G+MbcSj/wrIQ/UCoXsMDfDMxhA0A5k9/wX7ym+1MAPh3Rt/T2yZt76p5kmDa80U9lYwvu1wDsa7Zqfy/hjrwnXoy/A8PhDwB3HXP2jN8FnU9YbAAo8WK73C9DRwmK7R3jRP1f8x+GQK9cvKoz1Oe6Jwmv9a+s7ZsbDoLIhfWXrG309/3GJT87fvYxXu5nOvwV6OrrK13hby2z2ABQonUaq5Tf8AcAF41fAxD1jXrGiTgpvzdAv+SEf7ArFmxZuRIFcXCPVrmixBS3XP04YBrDv38dvey4L+/1UoA1jWEDQDngM/wDV0+mK9Z0vl1FvxzL4IIjFq/uCnyr4SQw/vsNHGTJe6WN2/z8lwF9j6eFQ0xfq/Q9UR33r7lioFryX3PPm7ki6CxMYQNAuWHjcr/kbZKHKxbhQJ1lsPwObZSBswxVAagsueyxF4N+2FCseK1/dauWPPsmhRStDjJ4FEB11F6YeE76C1drwGtl0VMDr20QGwDKuHxe6z+o/J6us1Dhmn9rBkJ/xFUGLY3bSnaDwoJkhX/yXpjiFm4DMN5ELS/fnesa2JNn8oz/gJMQ6KXHnDPj6WBrm8UGgDLMbvgnb5M8XHFN91RArrY+0JB3+zV+JucvWtX5AetzMYnhX9XqJRtOhmBuJIMNXFg42AAkIvyDe/zIc2feaapYWGwAKKPspnnyNsmjlRXfBKrcQc2Eyu/2q3FEnGXF9RVu5ZpAybnWP3mvtAfu2LiHKm4CAPU6vzDfxpArANygdeK91n/QP0riJGLX/yA2AJRB+T7jHwBaV3cdDuBE44W9vduv5qC+13rOMz4nwxId/gl48TW6eguAwLf79azSt18OcBVEMsJfBfKFY8+Z9nygtS1hA0AZw/C/aOWGsQoxu5vR37v9qkT1quKDm/cyNCvjknOjn2SG/6olGz8B4GSTNf18W67rcwWfLIU/BHrdkedObw+2tj1sAChDGP4AsPO45laYuOZ/MPSDvduvZny5oXCzuXLmJOda/2SGf/vyjnGiuhz1bvdrmfo5DhB4UYPhr/iPcT0zY73hTzVsACgjGP4AUFzd+TYFLgpcINwufq9DHL9oVeexlsoHwvCvT3rLRQD7DH4dyfH/ClyvRwESEP4ANhSayicd0opS4AoWsQGgDDBweZCn6slWLMJxEfCaf0O7+L0ScW4vruzeKYKh6hp5q/nQMhj+7bdvfIcCX4pswBrft6rW3wtg8lKB4L+DLSJy9OHz9+wIXMEyNgCUGTYu90vI9teT8sFd8xX4kOcVIni3X8PM8lhN3b0B6gp10p+JlcxbX0QDHNwDCzeTCvotuuVaHYLBOQT/HbgCPfnIc6b/JnCFCLABoJTTIf/refHMWdjWNQUi13haOOJ3+9WnIV9a2N7z7hinYJbJM/4T9DrdsvuGC6F6cJLmpIrKtwc2ecZ/qO9XvnLkuTMfClMhCmwAKMXshn+Ctnd1FQpyK4Ddqi4Q77v9agqO6rITV6IQ90RCM325X0Ksvuu5vSH42sjH4zr+P6z0yJMBTF/uF5jcdNS50281WNAaNgCUUgz/QYvbu+YA+GzFJxPybr8aFbxnv7HdZ8c9j1BMh3+SflHlwlIA4yId0+P377oKHTx703T4B/0dCO456tzpFwdcO3JsACiF7KZ5kra/9Vy0csNYkRHX/Nu5fM8YxaiG5OpF7S9Mj2s+oWQ4/Ntv3/h5hR5mq76Jb7XWxwR7G9fo7+CB8d0zzgpVIWJsAChleLnfUDuPb14MYJ+E7uIfpsZeiF0Ubip2mZqT8PBf3jERojfueCBBcxuq/2oA75Oz985fH3u955XPJvVyv2rYAFCKMPyHumLV5reqi68mehc/vM1NgE8vau85OoIpmZPBy/126C1/E8CkSk8l4fj/0CHKta4IGLFsta+qPeTRBm1oOGle64G9gSvEhA0ApQTDfygBRJ3CMrVwaZYJ/t+XKQTukqTcG6CuDIf/mjs3fArAP8cyeICTevrPBfBT1ujvYCvE+czc+S09gSvEiA0ApQDDf6TFq3vOhOLDcc9jKK/v9qstrcCs0lhN5C1Th8lw+Lcv7xjnurjD9jhGv20Fyp4/JMjo76AXjsw76pxpPw9cIWZsACg1bGwrE7b99WRhW9cUVb0u7nkMCvJuv9pTqrjwirbudxmZmA2hTvoLv1KAz8LzRXpLV2Hk50ik4I9EXYVbZTdAzbcPwb+3l1X06KPOnr46cIUEYANAqRBgz6DJRRPFcXAzal3zH4Gw7/YrPt2voSxI5r0BTJ7xH+DFZ/v1uurO59+rkAtqzyFZx/+HckujZ1dzGsHn+DfHdT8095yZ6wJXSAg2AJR4NsLfigjGX9zecwggJ9kfaTR/oT90DX/FBPre/Zu75vufoUUmw9/c8MasL6JBXPkWEGPjFfIPfeRnBNQ97h+AKP6jF/K+I86f9QcjBWPGBoCyIe7j/mp/I33B2qebAV2KiD+ONVjoe3q3X72K4LrE3BvAdPjH/VqtYMseG74K4B0RDGX8+P9Q5ZJW+Fs0tOtfcM9rL7wy5/hzp78QYO1Eaoh7AkShxb1BjSD8AWCCO2ExgP0jGCrA91NjjWA/nF2g7k2odofDqOQg/FctefZNgsKi2CZglKJccuE0Oju+rrCIX6+p6vlzz515X7i5JQ/3AFC6xb1BjSj8F7f17A/FV22PY+zdvv/jBZXqf2bxqs65YSrEJx3hD0AEznIA4+stmIzj/1p9iIH9Yu6OQwFGwv/3KOgH5p6XvfAH2ABQmiVggxrFRrr/mn+9C0CzjfoWT+gLzYUsuXhdZ91wsiLwu//UhD/alzx/CiCzIxquOhPfsGJHE1Dx5kD+xlAAtzvutoOPOmvm/4WeW0LxEAClUwI2qPVuPmLK4vae0xU41HRd/9tDI4X8jrRnUy8WAlhgdhR/k6jzcO0lEvBaraR9ecdEqHwjyjNKbB7/H/aYKtwS4DRIkIGfdRRnH3HejLWh5pcC3ANA6ZOADWpU4V9s75io0GtN1Uvyu/2q5VQuvqy9K5IT1HZMxPvDtZdI8jH0XncJBBOrPp/kuXvgDt4bwPv3UQb01tel+W15CH+ADQBlnJVtWIQbxpI23gLU2Eh74P9wvIfQN/Qz8FiuoQAsKxYj2F6FOukv/Eo1VzH4ulu1ZMMRgH7G6/KJP/4/0uAb/z5vDYAAvxPgw0edO/PCeedM2hJ4iinDBoDSxccGxlb4R5X/V6zq+ThE/yXo+sZO6PNfzPNoPlZ4f9+7u84wN4OKY/h5uPZSCQ7/lXd27yTAUnMVQ7J4co6i7m2Ce6C4YFzPjIOPPHfGLy3MJNHYAFB6xL1LMsLwv2Dt080Q/9f8Z+DdfvX1Bd9Y+OOeFjOzGVnc18OBlgpcwfCLbqxuvxrALLNV67N+/L/aogro6B6gV4Hb+vpKbz7qvBm3p+1jfE3hSYCUDnEf948w/AFgQnmXhQoc4HX5pJ7QZ7SkYoI2uDcAONlUSQBAGRXbrMDhb/K1avj3serO598rKufWXTDuZtuwctlFQRyIwAXk/pLIFceeM+35uOcVN+4BoOTLWfgvWNOzHyCX1FvOyrt9QwzvPNhBBP+yoL37SMNlR8li+D+1/KlGceUe+Lzdb+qO/1dRLrlby+p87Khzp5/K8O/HBoAyJe3hL4AUXLfmNf/Gju1bSGkboT+SqH7zopUbxtqqn8XwB4DN26deDODt5iuHEOUfl2Ks9pWvWr78qcYIR000NgCUGWkPfwBYvLr7VEA+UWEqPsI1nhP6IvxZ7TuuuTna+wIMk77wb79tw5tVdLH5yt7Edfx/iIGzAPSQya9NvsvgbFKNDQBlgsUTiSOzYO3mSar4xtDxs3pCX+jxRS9Z8NDmA43XDbJE3IeoPBBH7gAwxtPCGTv+DwBQOCooD3xx+kO3Pmv9ttppwAaAUs9K+MewESyUCzcC2MPYLn5UfirMjd88zS2aH16TiLNUDH4yYiLC38KPru0bPTsr9LAg62bl+D8AiKIA6S+jKtc/dMuzx4edWdqxAaBUs7LdiSH8F67uOVSBz5l6ty91egI/fL/bl+qZbPRHK/jo5as6TzNRKtC8TL9OLL3udtk6cSuAbXaqhxDHngaFDPSnjkK+89DNz34ohlkkBhsASi1b4R/1dumCtU83i3q55r9qFJeGPV1pCfTnsiOCQkHQUBA0NggaGxw0Fhw0NggaGhw0FPqfdxyBQHaEuSrgKlB2gVIZKJUVfSVFb8lFb1nRV1b0lhR9ZRd9ZUXZVbgVJlH5G5QSKl2pXesnoQM7GlSuX7B28yQ/6wajNb8MUCF0Pa8GrnFfZW+E2hJw/H/Y6kP603EqsvrHtz777nBV04sNANGgGMIfACaUd7kcwH7Vlxge+ipSHvFUw9CJC2RLY4OD5kYH45oLGN/cgJ3HNmCnMQ0YN6aAMY0FNDU4aCg4KDgDYS8yEM4ytFDVuQz+r2r/PddLZUWp7KK3pNje5+L13jK2bCvh5dfLeHVbCa9tK2Nrbxm9JRflUZ2BNgDiDBmhXOlXMRj6I44w7IFe56bqPzsTwr8q4gr/QQXVywG8WHfBbB7/r/Xgro7i4Ydues74+SRpwAaAUikLZ/wDwOK2nv0VctnoZ4a929fBY5cAIK4WhvQEJRX8EtDbIDhZRPbbbeeGs3ce04BxzYNB3x/w8VCUXaC37GJrr4tXt5Xx4mt9eOGVvh5XcDgUVwikHcBLO74/oDB4bL8/8KVU87QCwcmXr+ocdeWEqfl7echnhcC1gjri/Jl/VXE/Csi/A/g/DPl5V5Ol4/+jyZCyMkkLeLTtlg37Gh8m4XgnQEqdrIS/ALLQce8EpHnHRKotOnwnwN8APAaVx8qFpseuPWrCsHd2N69/8f1WJmyQq6rXzp28DsA6ADhxJQr7jOt5p+PqbBWdDRcfA9DUv7TW204JVJYW1z9zUOshexk81p2N8B909Lmzfg/gpMGv1694ZsxrW51pqpgmbqEFonu7wN7iYhpEWgDdB8CuViaTjD0NgoGjAlBMU7j/2fbNDYcf86UZv4t7YlFhA0CpkpXwB4AFq7q/AJFP1JzBG2+AfgXFj8TFj75+3OS/RjPD6PxgHsrAxKcAPAXg+uKDL+3aK73HuI58WlTnoMaNkQBAgDf3vjLuMgBfMzOjbIV/JYecstc29DeTf6u2zMrlf5swpq9hhpSdPSGYrnBniMieUExXyAxAZwEYV239pB3/r0D6T5lVUWCquu5PHrxlw5HHXTjjyXCjpQMbAEqNLIU/AEitG7P0v+P/DUS/Dbf8o6uOzdetS1uP2/UlAPcDuP+ylS9OKDT3Ha3AFwB8AlUOXSpwyQVrn772tiP23R5u9OyHv1fz5u/9MoCXAfy+2jIP3LFxj0JJpwvcWerITFFMB2QWRGcCmAHFDHi9B4Fpnn7WOvT42B5Q97EHb3zmmOO+utd6O5NKDjYAlAo2tpnxb4flJ4DuvePL/p2RL8PF95yCc/eVR018Kr65Jcd183Z7GcB3AHxn8YNd+5QLegZUTgEwdcSi/x/DP3rHnzv9BQAvAKi66/yBpX+d3LitYYYrzgxAZikwQ+BOR//ehBkApmPHIZ9Bto7/17UzHKf9x7c++7ETvrznf0c/fHTYAFDiWQn/BGyIr5o76cyFqzd/F+p8TFSaoPhNo5RWtx7T8nrcc0uqgcMfl39xOa6YOLVnjkI/IFBV0Seb/3vKGhwTprrl8M+x48/apwtAF4BqgSo/vvXZqY3izHBFZkDdmVCZKeLOAGRm/386DdFl1viCK7cB+EhE48WCDQDlj6WtdJCyVx819acAfmp6Llm3bD76gImrAaze8eDRYSqGD/8gQ9AOesKX9+wA0AHgV5UWWLkShebO56eUS+6eDmS6AjMcYE/t33swA8As9O8VGvVph0F+9Ap8uO0bz0875pKZmwKsngpsAChfLB3357Y9Y1J0o5+8mDcPZWDmJgBVA3l9EQ0v77ypRZzSLKjMdOFOF8gshcwU6HQAM9HfJFS+LnbE76ncUJpUa7y0YwNA+cHwJ0uiCH8FdnymHVXWf9fDac8DqHrS7MriH5rGjB8/3S04M1xxZzmuzFBgujrYU/rPR5gBYDKAP5Ze3frHqOYeBzYAlA8Mf/IqqSf98cVmxLzWA3sB/H3gv4pWFJ8Zc0qryXtKJBPvBEjZx/AnrxIa/nytRSsP4Q+wAaCsY/iTV0kOf77gyAI2AJRdDH/yiuFPOcQGgDIr+u0mt9R5wPCnrGADQJlk60Y/1ctyS50HUf2WGf4UBTYAlD0Mf4qDycv9Ktbi64zMYgNA2RL5cX9ulPMismv9Gf4UETYAlB1xhz+30ZnF8KcsYgNA2cDwJ0vivdEPX1hkDxsASj+GP1kS741++MIiu9gAULrxWn+yhJf7UdaxAaD0iiX8+e4/D+IPf76wyD42AJROlsK/7qA1vqRsYPhTXrABoFSytYnkcf98i/9GP3xhUXTYAFDqxH6XP26j84mX+1HGsAGgdGH4kyW81p/yhg0ApQcv9yNLGP6UR2wAKB0Y/hQH3uiHMowNACUfw5/iwBv9UMaxAaDEY/hT5Kxf7scXFsWPDQDlTvSXEFKqJPkuf3yRkUFsAChXbN3lj9vljEjyjX74IiPD2AAQAWD4k0kMf0oDNgCUGzaO+3O7nCFJvdyPLzKyhA0A5QLDn2pKavgTWcQGgDKP4U81uWbKWAl/vtDIIjYAlGkMf4pMBOHP1x6ZxAaAMovhT1ExfqMfhj9FgA0AZRLDn6Ji/EY/DH+KCBsAyhxuLCkqvNEPpVlD3BOIw+WrX96tUXo/B8hbRN3XXJHHvn7kpIfjnheFxxv9UFSiutyPrz2yJXd7AIpruqc2Su9vofgmVM9SyFdEsbZ1dfdtcc+NbGL4kzkMf8qC3DUAJeBWKGaOfFyB8xavfeETccyJzOBxf4oCw5+yIlcNQOvqrsNF8ZkqT4u47l3F9c+MiXRSZATDn6IQ1Y1++NqjKOSmAbho5YaxCrmj4pPa/58q9ut7dadLop0ZhcXwpyhEdaMfvvYoKrlpAHYa23wFgH2GPdgf+oP5DwAQ0QUL2l84IOr5UTAMf4oMw58yJhcNwBWrNr8Vgq8AGPpuv9ofW3MB7lIBJLoZUhAMf4oKb/RDWZT5BqBYhAOnsAyKxpHv9mv4+MJVXSdbnxwFxvCnqPBGP5RVmW8ASu/uOVMVH/b7ByYitxTbOyZamRSFwo0lRYU3+qEsy3QDsLCtawpErw24+h59aAi6LlnCG/1QVHi5H2VdphsAp4BbAOwWdH0BTm9d3XOowSmRNQx/MofhT3mQ2QZgcXvXHKicFLKMuKp3XbD26WYjk6JQeNyfosDwp7zIZANw0coNYwG501C5/SeUJnzVUC0KiOFPUeCNfihPMtkA7DSmeRFGXvMfhmDx4rae/Y3VI1/SEv7KrXqqJf5GP3x9kWGZawAWt/Xsr4PX/JvTDEf5YUGJwvAnwxj+lDOZagAEEDi6FICNY/ZzFq3qCXtOARmRrPCn9KvcwDH8Kdsy1QAsau85A8Ah1gYQveXy1S8HvqqATEhe+PPdf7q5FR9l+FP2ZaYB6L9pj15juq4O+Q/AFAfbeW+A2CRva8jwp2F40yBKkcw0ACUUbgVg7M591W4ZLCpnLmjr+rCpcSgEHvcnK3i5H+VDJhqAxe09hwDyz2HrjHi3X43jOLL0i0+hMex45Eeydv0z/LMqIeHP1xdFIPUNQP9NenQpQnx6n8cPCBq69Nsmbu6+KOh45BfDn6LA8Kd8SX0DsGt5wiIAvq/R9/huv+rSotp6+equvf2OSyEx/MmKhNzoh68vilCqG4DFbT37K3Cxn3UCvNuv9tTYQhmm7jZIXjD8KWl4xj+lWGobAAFEHb0LHq75D/tuv+LT/ZM4fOGq7hM9laVwGP6UNAx/SrnUNgCLVnWfJkDVT+rzF/pD1/BXTKDfLD740q6ehyH/EnCtP9EwDH/KgFQ2AAse2LgHBNdVei5Y6Ht4t1/d1F6n9yrPQ5I1vNEPRSLG8K980yKiYFLZABQam2/BkGv+o3q3X40Izl7Q3vVB72tQWjD8aZgYb/TDlyKZlroG4IpVPR8H9GTA4Lv9AKE/guMAy764nPcGiAuP+5N1Md7ohy9FsiFVDcAFa59udkWXKiBG3+2boHj7Hi1dXzJUjXxg+JN1MV7rrzW+IgojVQ3ALu4uCwAcUH9Jq+/2q5YUoLh4VeebzFWmehj+ZB3DnzIqNQ3AgjU9+0HlkupLGDmhz7Mqo41zIXeYG4VqYfhTXKI/458vTDIvFQ2AAOK47l0Axox+1uwJfbV4LHfEgrauE8yMSNUw/CkSMZ7xz5cj2ZaKBmBRe/cpgHzijUfiebfvlThYctnKFyeYmwENxfCnSCQm/PniJDsS3wAseGDjHgpc3/9V4t7tV1u5xRnTe6WZmdBQ3BRSJBj+lAOJbwCcxsabAJ0U9Ql9YQnkvEWrOj9goBQN4I1+KBJJDn/eCYgMSnQDsGBVz8cBfH7UE9Gc0BeWo5BlxfVoMFs2nxj+FIkkhz9fq2RYYhuAC9Y+3eyI3gVAACT63X4NB/W92nme3SEoKIY/DRPj64HhT3FIbAMwobzL5YC+JSXv9muMJ1dd/uDmvSIaLpPSctIft9EpluRr/fnCIksS2QAsbu9+syouTcQJfeGNdwrOLfEMTZUw/MkLhj9lXeIaAAFEVatc8+9PjKE/0nGLVnUeG/ckiOFP3iTiRj98YZFliWsAFqzq/gKATwZdP+Z3+1UpnNuLK7t3inseecZj/uRFIm70w9cqRSBRDUDxkQ27C/QbQdZNYugPUgVUdeb2Zi3GPZe8shX+SX3NUTCJOeOfKAKJagD6ehtvBDDJ6/JJfbcPDIb+qOD50sL2nnfHNKXcYviTF4kJf76wKCKJaQAWtXV/DJBTvCyb1NAHKob+UAV1y8tOXIlChFMiC5L6+qNgGP6UR3bHm3UAAB05SURBVIloAIor/9AEwVIMXvNfQQrf7Vch73nzmO5zbM+J+vGkP7KG4U8pl4gGoG/MxMsAfcvIx7MT+iPX1asXtb8w3fysaCiGPyUFw5+SKPYGYHF795sBXD70saSGPhA89EfY2XXLtxqYDlXB8CereK0/ZUDsDYBC7wQwJqvv9mv49KKHOo82WpEAMPzJMoY/ZUSsDcDC9q7Pq2J2Uv8GLIT+MK7IEt4bwCyGP1nFG/1QhsTWABQf2bC7Km6Ia/xqLL3br2bWtma9IpKRcoDhT1bxRj+UMbE1AL19jTcIMDmu8UeKMPSHEeDCy9u63xX9yNmSiLv8JWEOZAdv9EMZFEsDsGB190ehcmocYw8V8bv9ahoE4L0BQkjEjX64jc8uXu5HGRV5A1Bc+YcmcbXmNf82JST0R9D37tvcNT/uWdAbGP4EgOFPmRZ5A9DbPPFSAAdGPW7yQv8NA1c/XMd7A/gX+3H/hL6myACGP2VcpA3A5W3d+0KwIKrxkvluv1+Fyx53Kat7U1zzSaPkhX8CX2gUCYY/pVGkDYAj/df82x4nqaEP1LnXgepnFqzqnBvhdFKL4U9WJfBafzVYiwiIsAFY2NZ1MoDDbNVP2bv96su6suTidZ3jLU8p1Rj+ZFVSw5/IsEgagOIjG3ZXgZXd26FD39KpiIHvbCjYs3E7FpmfUTYw/MmqBN7oR0f9g8iMSBqAvu1N15m85n/Uu/0wIW74j8rE7YxV5SsLV3e+zcR8siR54U+ZksAb/TD8ySbrDcCi9u6PqOCMsHVU4VZ9t1/nj0MEgPT//+B/zoj/ZMR/vuYGM8E/RKNbkqXFYvyf1ZAUSTy0w61yhpg845/hTynRYLN4ceUfmtwxE5dKkPfoIiWoNgzZ8FcIQ4GIQtA/gjP0Men/d2U65H89GNzjAAUg/f+vgAtPwaSAlABt9LLkEB/e9o6uM4DJy71OM6uSeaMfbpUzw/W3eN3j/ibxZUYWWX2HuX3MHl8V4K0eF9/xZ6gKqDss/AFgkyOCgiNoKAgaCw6aGvr/v6EgaHAEjiNwHEAG3/JX5D/8gcG9BgJHgMLAPBodQVMBaHT6xy84/c+PIEPDX/vjrDSsfrXdB4LrFrZ1TfE6VfLORvhzW519POOfssRaA7D4wa59BFLnZDYZ2ns7Q3bxK4DfKHATgH8qlxpmXnPM5OkNhcGQFd+76bGjrP/wr02GHVIoOILGgkCAj6jiCwp8C4pnhy+NhsHQV9Vy5YEVgO6mqjd7nS55w/CnIBj+lDXWDgFoAXcCGFtnKWfIu/zNEF2rwKOlEh6/4fgpXYZnNOR/PS/us/obmsfo/2udM+VnAO4HgAUP9OznOnqYQOeg/3LIsQAgIoXqVQAF/vnStq4V1x8z+VF/M6JKGP4UBMOfsshKA7CwrfOzEJlTa5n+4JfnFfixKH7U/JtJP2tt9Xs0ziuTp/cGW/ya4yf+BcBfANxRXNm907Ym9yhA5gF6BIBxtdZ1VO8srn/m7a2H7LXN38xoKIY/BcHwp6yyswdA5LOVHh54t/8qgH93RO+9+ujJv9TBl/yxVmaCoX9Rnv627PYKAIDWeZO2APg+gO9fvK5zfOF1OV4EZwL6sSpj7Lv9xXHvAvBEgOEIDH8KJtLwJ4qYlQZAXb1WHDkIwJsGd/Er8HMHck/TdvxgIABxlY3Bh8+kwr88Le6zenA3zJnyGoDvAPjOgvaOA7TszAfwOQUmDixShmBF826Tf2VguFzi2f4UXgThz5caRcxKA3DNsVN+WSxi363v7Hyr4xR2Lyv+3/XHTNxkY6zqkh/+I10zt+VPAC46cSUu3mtsxzscFzs52+WP18yb2m1huFywFf7cVmdfzd8xw58ywNpJgP3H86f8r636taUv/If6wTyUgZb/tjwMBcRtdfbV3PXP8KeMyOCd5nyGf+DqlHQ87k9B1D3ub28wokhlsAHoZ+NyP/6tpgfDn4LgGf+UJxlrAOxe60/pwPCnIBj+lDcZagCivdEPJRPDn4Jg+FMeZaQBiP9GPxQ/hj8FMfxe3Ax/yo8MNADpPuOfzGD4U3i80Q/lS6oaAKlxPU7Swr93W7CPK6Lhdnq5wucrjpCoG/1sKVu6nTXZxRv9UP6kqgFQYPuwr0b9q/bKPscKRbShKWQJArC9obe51vOJu9HPpEn8vIbUqdCzMfwpB6zdCMgGAbYrMCbp4Q8A0lRiA2CA0zhmjOtW+MRki0L8/suth6BkbiZUTbEI570TN+6rjrNz2FoOMHPY7zzJ4V92d1t923MHhy6jTl+js+3PR5y/7/b6S1NWpaoBALAN0AmDXyT5Rj8Nrtb5KGTyQkrlMdX2UyXwuD/f/Udg9V3P7fbeSQ3rIHiPwA3Z4KvdN+cmiysAx/mEAr9+46FgA4goStq8uW3J80cfc97MX9dfg7IotYcAkn6jHxeFSQbL5ZYWtOLPMYHhDwBbw5egurRwIUTf0/9vn6vW+CpIvZrjmA7/UQ+FGKB/1alwcXPwIpR2qWoABLoVSMeNflQqBxf55GLUzzGh4Q9lAxAJR3AAgPyEf8UxQoc/AECAt4SfDaVVqhoAAK+k5kY/LqaaLplHZWDK0K+TGv4AIJAuQ6WoBlcguQp/u3sSeLVSjqWqAVCg0+uCPuua1V9wH9Nl88iB7Dv47ySHPwCIaIfBcmRI1sI/8Lt/XolAI6TtJMDNdZdIQPgPbAj2M106l6T/55j08AcAVz28Pik8H3daiDT8TWP4k2Xp2gMgdfYAJCX8AUD0QNPl80ihb0lD+AOA43UPFcUgZTf6YfhTBNLVANTaAxB3+I+qKbMWPtLTYmGY3Cg++NKuCvG+J8XHjX5sUPAQQJLUvFtIXsKfqIZUNQCFag1AEsK/QlGnz32/haFy43Wn973w+hqN6XLPoTXVdf5ioTQFUPN3nKfwZ99ANaSqASgDfw1bI6pjdQAAwcdsDJcXBUiIn190u/4HT/6SxvKfLZQnn+oe97c3mPFaDH+yKVUNwNaC+xeE+Pu2Ff5V81/lCBtD5oVCj/K4YL0HajwazpAzv1+7fm7L8xaGIB9Se8Y/w59ikKoG4IY5U14D9I2NbNwv8hrhP/D0AcXVXXtHNp8MubStZxqAd9ZdMBnhD0D/UuflQJalNvwrjhFN+PMFm2+pagD6Sf9u1riP+3vc2vepnGh66DwQlOeh3k1KEhP+AET+YGEY8ijV4W95T0IUw1I6pa4BEMWf0xL+ACDA500Pnwci8rmaC8QY/pUKq+JXtoai2rIW/lFc7sfwJyCFDYCK/J+v5Y1PwHfNt1yxppNXA/iwcHXn26Co/pGnMYd/pSs+VOVJS8NRDQz/6rUMLEoZl7oGwIH+0uuyCQj//tVcucD0VLLMdZ0vVX0y7vCv/HBfudT7G0tDUhWRhr9pMYU/0VCpawB+/9qk/wWwpd5y1o77BiLzFj30j5kGp5JZC9ZungTVf6n4pMfwt6Xau0AFfnPzvBn8JMDYRBD+ST7jP9zQlGOpawB+MA9loPbxVivhH65oo1Mof9XQVLKtt/BlAGNHPe4j/CM56W8IB/iFhSGphpq/4zyFP3f9UwipawAAAFJ9gxvV7jr/JfSsxas63xS+UnZ9tb1jooqeH6ZG1OEPAK5inYVhyRPr1+NZrcXwpzilswFw5YlKD9sKfzN1pQniLDZSKqMa1VkMYOdRTyTpcr/ReseXnPUWhqa6UnTSH8OfEiiVDYBTcP4DQJ/1gYyF/w5fuKK964NmS2bDZQ91vh0qZ496ItnhDwV+3jpvUt1zUsi0FIV/xTESEv7sDnItlQ1A6xG7vwLBz4c+lpQz/utwXMgdJ65EwXzp9CoW4QhkGYDGYU8kPPwBQMDd/9FLWfhb3pMQeFGGf+6lsgEAAHV1zY5/Gy9u9SqCd+03rvtSC+VTa9s7O78EwfA9IykIfwBwHVltYQrkR8rCn9f6U1KktgEouHgYSF34D35RvGLVC++1MEzqLHho84EQuXrYgzFf6++9sPz5hmMm/87WNMgDhn+wRdkhEFLcALQeM/l3KjD76WtRhH+/Blfc+4tr/7GLheFSo7iyeyeF830Mvewv5vD3c7mnQFdamgZ5YfpyP5NiCv9Y6lFqpbYBAABx0WayXsR/Fwf0lUsrpN4H3mSUALKtSVdA8LYdD/q41t8Gv6OVHWEDEJe8XOvvczUe9yc/Ut0AKPTfjNWy9IdRvawCwPGL2ruKdkZOtsvbuq+E4J92POAj/OM+7g8AKvgTd//HJC/hH35onwtQ3qS6Abhy7uQnAPwldKF4wn/wX4sXt3VWv/d9Bl2+quschS4Ksm4Swh8ARHG/halQRFIR/jzjnyxLdQMAAKL6vVAFojvuX/kZBVTk5oWruk+xMI3Eueyhri9CcfuwB1Nyxv8QpQa3sML0XChiDH/KudQ3AI4r30HQl3gCwn+AI9B7Frd1jb4RToYsaOu6RAR3YejrLn3hDwDtV58wscPoZCgyVs74HzUGw5+SL/UNQOsxk54Ght8UyJPkhP8gRwV3LFrVfXWxmP7fy1BfXI7GBW1ddypwPYae9JjO8IeKfsvkXCg6UVzux/CntMhI0MgSX4snL/wHCaAL+t7V9cNL23pG3xM/hS5+oHPyblO7H1Fg+N6NlIY/gGef6Z36iLHJUGSiutY/ilrMdjIhEw1AYfzEH8LrPQHiDn8vBMc3ivu7BSn/3IDLH+qa3VCQ/xHoocOeiPla/1Bv0ATfHPhIakqRqMKfN/qhNMlEA9B6CErq4q66C0Ye/qEW3ksU6xes6lzwxeUj7pGfcMW1/9jl8oe67oBgHYBpw56MOfxDXu75kkjhbkNToYhYeS0x/CkDMtEAAEADSt8CsLXqApbCvzbPu/6rrdkkkKsntXT9alH75veZm5c9C9q6TtjWV/oDBOdg5E2OfFzrb0PY0RSy/PpjJr5qZDIUicRf7pfkQxKUeZlpAFrntvQA+q/Vnrf2jtLrMyG6fAXeoer8YsGqru8uXtX5Ju+VonNpW897Ll/V/VMFfgRg+qgFfIR/Ao/7A0BvqaFwm5HJUCQSH/7hh/a5ANFwmWkAAKBQcK8FtHfk4zHd5c/Lgj5qQgQ4yYX8adGq7rsXt/Xs772qPZc/2HPw5Q91/dCB+yRUD6m4UMwnNxk5/iv49s1z99hoYDoUgVSEP8/4p5g1xD0Bk1o/NfWZK1Z33w3gnB0PZiP8h2pS6OkqeurC9s616sq9zdt72lvnHTiq8bHlgrVPN48rTThWVM+Eg9n+K6TmjP9+gm0ol640MB2KEsPf7EQoczLVAABAoSxXlwt6KoCxsZ/xb/edrwOVo0RwVO+YiT0L2zvbFLKqr0kfvWHOlNf8l6vtopUbxo5rapytjnPMeN3leED38LRiei/320Fc3HXdCdM3hK9EUbByxv+oMRj+lH6ZawBaj5m4qXV1152q8pUMh/9IE6FymgCnNW2X0sJVnb8B8IQCv3Vc+eO2QvkvN85t6fFarLiye6dtjbI/HPcAAO8C8MExzU0Hu0Cz+jmekoHwB/CqU9JrjVQi66K43I/hT1mRuQYAAPoc9/pCuXAmgF1M1k1o+I/UAMh7VPEeAHAFaHILWNDWtR1AN4BuAV5VoHdg+P4z9QW7QbErgCloxk5SYWbhLndMZfgDkJuumTel21Q1sieK8I+qlt141gr/ojzKZANwzRFTuxev7roMKneaqmkj/G2p8ia9GcAMADMqPl1n3mkJf8OFn3PH6Y3GqpE1UYV/+q/1Z/jTGzJ1FcBQVx01eakCPzVRy9YfipV3vxaKpin8jX7/Ds63cT4FmWXltZSX8GcXkGuZbQAU0EaUTlTg6ZB1vD8b9+VueQ9/k8VEH77+mCltJkuSeVaCLKbwt1uP4U+jZbYBAPpvDuSWC8cC2GK+OsO/9sLRbl0M7wJ+3Sk75xqrRlYkPvzDD+1zAR9jMPwJGW8AAOCaY3f/A0QvCbJuSk76S1X4J/+kP0BUL7n2hMl/M1eRTEtF+CfsjH+GP42U+QYA6D8fAIqH/ayT5/C3JQ3hD+Dx64+fauzkUbKI4W92IpQ7uWgAFFAV5wwAL3pc3tszGQ3/tBz3txD+L0uDe5pyq5loVs74HzVGtsKf7/6pklw0AABw1dw9Ngr0y/WWS0v425Lj8IdAzrtubstzZqtS4o3602b4Uz7kpgEAgCvnTr4fwLerPZ+m8E/Lcf/0hD/uve64yd8xW5USz/JhhCiGrVWd4U+15KoBAIDXtm4/G8BvRz7O8A+zcLrDH8D/jW1wzzdelZLN5HF/09uFwK9xhj95l7sG4OZ5M7aWHTkRwKuDj6Xp7yPP4W+p8Baoe2Lr3JbXjVem5GL4E+WvAQCAa46c+BeBnAXU+/tI1rv/vIe/he9fVfW0649v+aPxypRcMYW/3XoMf/Ivlw0AAFw5d+J3AdT4lDeGf+2Fo9262PmZyte+cfzUlRZKU1KZvtwv3NA+F6i/IsOf/MhtAwAAV82dtBDA90c/w/CvvbDnMyaMsHTc/wc3HD/568arUnKZDv/EnPE/ogTDnzzKdQOggL6+dfupgD457NERC/moZxxv9GO+sAp+trX51c8rN5X5kdnw50uYgst1AwD0nxTY6DrHA/h7XsI/Lcf9LYX/n9yCe9xtR+y73WxlSqwchD/f/VMQuW8AAKD1mImbpKCHKbBpx4MJuNzPhlyHP/CcW3Y/dePclh6zlSlNGP5E/dgADPj6EZP/WlB3DoAXkhD+aTnun5bwB7Cp4MqhN57Q8qzxypRcJl9HDH/KGDYAQ1x59NTfO+oeAeAVL8sz/M2zFP7dZdH/v717j62zruM4/vk+p+0YoGu6tacTdlETRTL9A4mEhMEyZGTu0g7tCOofGBGJN1w2E5XEWrAbLbo1TLdgFPzD8IeNOMeIsnCLziAxGxh0i9fOCO7Cxu5s7Wmfr38M5qi97LTPc55zzu/9+uusO/0+v14/nz63cxOv8BeYjC73SzeLCX8khwIwzL3Lmv8QRdFCSZnsJg45/FMavM9MN363pXl34pNRvso5/LncD2WCAjCCe5fM2GnR0PWSXh3tOZVy0l8lhX8KH3+fy+bf35J/OfHJKF8ZhX+68wh/JI8CMIr7lszcY/L5kv5vt3HI4Z+WpLdm0u5CTc387tamfyQ8uuyZRwNZr2FcpnSuwkj6jP/JbbrIJ4z/joQ/kkQBGMN9y/J9tTU1N0h68a23hR7+FXLc/2mr7b9u/dLpo+7BqWYWxSfGf1bmLug8m6JU7eV+w0YQ/kgIBWAc7YsbXumf4vPl+kVVhn/Gc1MI/x8ePZhfvG7J7COJTq0gsdn+rNcwLlOya6za8E857SkTQavJegGV4IFF+VMmffybWw+2y9Se1NyyuMtf9ZzxPyTze7pamrsSm1ih4jP9f41qp7gky3oto/HY/pLcsJHeVF3hn8pf/+Xw+weZYg/ABXLJO5c3fVvmn9J5LyU84Xkp/fBVykl/CYf/PkV+E+F/1ppF+VNSggGbgki+K63ZhH9R4xEwCkCROpfmH42H4g/J9ELWaxkuxPA36SkvRFd1LW9+NpmJ1cFNz2W9hrEMRvEziQzKKBQJf1QDCsAErGtt3nsid/wGlz+oCfw4ZX7cvzrCvyB5x9Q/5m/ubmss/2PeJRZp6JdZr2FUpj/9+JOzJ39TpnK+1n/CCH+UDucATNCbLyZz9z1bD22X+WbJZ13I+4Uc/skNtp0uu6O7tfEltSYxr/ocV8NTl+rIfknNWa9lOHP9dNJDyjn8y/VyvxE/ZwgZewAmqXP5jCfqanLzZNosKR7ruaGHfwIf/ylzW91XaLqmu7XxpQSWVLXaF2jQZJuyXscITg3U1jw8qQkj/JRxo5/JbBGhogAkoH1xw/HOpU1f8MgWSLZnpOcEH/6TnmC/iuTz7l/RtP5nbRpKYElVLzJtlHQ063W8jfvmh9uaX0t0ZImiLL3j/iUIfx/znwgUBSBBa5c0/rZuV+M8c1sp6dxZ2JUS/mmZ5HH/Pe6+squ16WPrWpv3JrWmEHx1Qf1Rl30r63Wc50D/wGBnkgOr44z/YSMIf5QIBSBh7e2Kv7O8sbduV9OVrmiBYm2SdDjJbUwu/BOaW8zMCQw216vu+mxfIf/B7hXNvUmvKxRzD9dvkvT7rNchSeb68iO3z01sj0R1hH9p9/MT/jifeVncjaa6fW37gUvqTutON1st6bLJzquUXf8TDP/X3NRzSS7uaV86843EFxWg7z1zdM6Q+y53b3Cd3SPlfjY+zz4+G6YjP37zueM+HjZz2AzJH/rBrZfdlcTHs23jK70u/8SEB5Rh+JfipL9RRh9uXTV7RoJbRQVhD0AJPLAof6qzJb9hSv+h97j751z620RnVXH4/1PmXywUCnO6W/JrCf/krF5Y/69IvlRSRp9Tezb3ztN3JzVtzDNtx0P4A+dQAEqove3KgXUt+R9d9GLTFXJbItk2FfH7rDrD33aa67a+Qv59XS3Nm9a3XX46hSUFb82NDc9HZrdKOlPSDbt25AantL552Wy2Ag1/YDQcAsjYN7bsnxtFdqfLPqMxrtmurvC3I256NOdDj6xrnbkzhWVgFF3bj14fW/yYu09P/RCA/LFa+aeTLnVbN77Sa8UeAkj6XJhyPeN/hFnjjOcQQMAoAGViZa9y75168EYN6TYzrZA07a3/q5Twl8a84mFQ8qfN7SdTj53e0n773NL+JYpzOre/Pss8ftTNrkupAAzEHn/9+ysv6/EUvtWKLgCE/1goAAGjAJShjuf2XnTm2MWLTVrhppslNV3QO5Zf+J+Q25MybS0UBp5Y33b56yltGkXq6FBUe+2hO2K3te6anlQBkLTd3b/S0/au1F6MqKgCUOQ3e3q7/lMO/xHmXeB4CkDAKABlrqND0Zmr9n/Y42ixmRZLuloj3cK5PMJ/UNJLJv0u9ujXZy469mxZHPvFqLq3HnrHQJ3uil1fcmn2BAvAkLuejM27em6Z+Zu015xWAQgw/CUKQNAoABWmY9u+i0/HNVeb6Vq5XyvpGvnwcwdG/5om/NX+j+Qvu0XPK/YdFxeiF9rbGk8muwmUQkeHougjh+bHsZbF5gvdNc9dtWOE/mH3eIdie2rQan6+4ZYZ+0q11scf/Pd6mVaN+8SyCP//vXMZhr8kvdi6avZVyS0GlYQCUAXWbNs3oyauudJiv8Ij/4DJ3i/3WTp76ODc4YMJfKULkg5KelXSAUl/l2mP3P7c73W7N7TWl9dtZpGYz+9U7fQDh96tIc0016XuPtXlR2OPj+cK6lub8O18i7GlZ+/cXC73vMZ6oaMyC/+3PUrxuH+Ro/tNamtZNfvx5BaESkIBqHIdvbvr3shNa/K6qCk3lGuQpFhxfWQyl9VbrJOKfNBjnTSLCnHkJy3WqZzZwc7lTQeyXj8wki09e+trctFH3dWQ9VrO5+7TXKqPpKkuM0kyqX9QftjMjk3uJgaJOp0b9B3L1szpy3ohyA4FAACAAHEjIAAAAkQBAAAgQBQAAAACRAEAACBAFAAAAAJEAQAAIEAUAAAAAkQBAAAgQBQAAAACRAEAACBAFAAAAAJEAQAAIEAUAAAAAkQBAAAgQBQAAAACRAEAACBAFAAAAAJEAQAAIEAUAAAAAkQBAAAgQBQAAAACRAEAACBAFAAAAAJEAQAAIEAUAAAAAkQBAAAgQBQAAAACRAEAACBAFAAAAAJEAQAAIEAUAAAAAkQBAAAgQBQAAAACRAEAACBAFAAAAAJEAQAAIEAUAAAAAkQBAAAgQBQAAAACRAEAACBAFAAAAAJEAQAAIEAUAAAAAkQBAAAgQBQAAAACRAEAACBAFAAAAAJEAQAAIEAUAAAAAkQBAAAgQBQAAAACRAEAACBAFAAAAAJEAQAAIEAUAAAAAkQBAAAgQBQAAAACRAEAACBAFAAAAAJEAQAAIEAUAAAAAkQBAAAgQBQAAAACRAEAACBAFAAAAAJEAQAAIEAUAAAAAkQBAAAgQBQAAAAC9F/6R2wGKPS6jQAAAABJRU5ErkJggg==;labelPosition=center;verticalLabelPosition=bottom;align=center;verticalAlign=top;" vertex="1" parent="1">
          <mxGeometry x="335" y="280" width="90" height="90" as="geometry" />
        </mxCell>
        <mxCell id="yYybROheOo7XdbPep2oi-24" value="✅ Desktop&lt;div style=&quot;font-size: 25px;&quot;&gt;❌ Dock&lt;br style=&quot;font-size: 25px;&quot;&gt;&lt;/div&gt;&lt;div style=&quot;font-size: 25px;&quot;&gt;❌ Applications&lt;br style=&quot;font-size: 25px;&quot;&gt;&lt;/div&gt;" style="text;html=1;align=left;verticalAlign=middle;whiteSpace=wrap;rounded=0;fontSize=25;" vertex="1" parent="1">
          <mxGeometry x="512.5" y="370" width="223" height="80" as="geometry" />
        </mxCell>
      </root>
    </mxGraphModel>
  </diagram>
</mxfile>
